<?xml version="1.0" encoding="UTF-8"?>
<svg id="barcode-icon" data-name="barcode icon" xmlns="http://www.w3.org/2000/svg" viewBox="0 0 45.41 28">
    <defs>
        <style>
            .barcode-icon-cls-1 {
            fill: #f3f3f3;
            }

            .barcode-icon-cls-2 {
            fill: #010101;
            }

            .barcode-icon-cls-3 {
            fill: #050505;
            }

            .barcode-icon-cls-4 {
            fill: #000001;
            }

            .barcode-icon-cls-5 {
            fill: #f5f5f5;
            }

            .barcode-icon-cls-6 {
            fill: #fefefe;
            }

            .barcode-icon-cls-7 {
            fill: #fafaf9;
            }

            .barcode-icon-cls-8 {
            fill: #e4e3e4;
            }

            .barcode-icon-cls-9 {
            fill: #c2c2c2;
            }

            .barcode-icon-cls-10 {
            fill: #e0dfdf;
            }

            .barcode-icon-cls-11 {
            fill: #adadae;
            }

            .barcode-icon-cls-12 {
            fill: #171616;
            }

            .barcode-icon-cls-13 {
            fill: #1f1f1f;
            }

            .barcode-icon-cls-14 {
            fill: #232424;
            }

            .barcode-icon-cls-15 {
            fill: #202020;
            }

            .barcode-icon-cls-16 {
            fill: #0b0b0b;
            }

            .barcode-icon-cls-17 {
            fill: #080708;
            }

            .barcode-icon-cls-18 {
            fill: #101010;
            }

            .barcode-icon-cls-19 {
            fill: #1c1c1c;
            }

            .barcode-icon-cls-20 {
            fill: #0a0909;
            }

            .barcode-icon-cls-21 {
            fill: #2a2929;
            }

            .barcode-icon-cls-22 {
            fill: #2f3031;
            }

            .barcode-icon-cls-23 {
            fill: #828384;
            }
        </style>
    </defs>
    <g id="DzRG17.tif">
        <g>
            <path class="barcode-icon-cls-6" d="m11.12,25.72c.09.03.18.09.26.08.04,0,.09-.13.1-.2.02-.21.02-.43.02-.65,0-4.73,0-9.46,0-14.19,0-3.47,0-6.94-.01-10.41,0-.15.03-.31-.23-.3-.26,0-.24.16-.24.32,0,.09,0,.17,0,.26,0,.12,0,.24,0,.36,0,8.12,0,16.24,0,24.36,0,.07-.01.14,0,.21.02.06.06.11.1.16ZM21.99.48c0,.22-.02.44-.02.67,0,7.41,0,14.83,0,22.24,0,.91.01,1.83.02,2.74,0,.19,0,.38,0,.57v1.24c.11,0,.2,0,.3,0,.16.01.21-.06.21-.21,0-.6,0-1.21-.01-1.81,0-.1,0-.21,0-.31,0-4.78,0-9.56,0-14.35,0-3.67-.03-7.33-.04-11,0-.18-.06-.25-.23-.25-.18,0-.27.07-.24.26,0,.07,0,.14,0,.21Zm-21.98,0C0,.53,0,.58,0,.63c0,9.02,0,18.03,0,27.05,0,.08,0,.17,0,.25q.47.02.48-.3c.15.05.3.1.44.16.09.29.3.12.52.15,0-.54,0-1.04,0-1.55,0-.79,0-1.59,0-2.38,0-6.91,0-13.83,0-20.74,0-.98-.02-1.96-.04-2.94,0-.1-.06-.2-.09-.3-.12.05-.25.1-.37.15-.15.05-.31.1-.46.15C.37,0,.2-.09.06.1,0,.18.02.35,0,.48Zm27.69,24.87c.02-.11.04-.23.04-.34,0-7.94,0-15.88,0-23.82,0-.32-.02-.63-.05-.95,0-.06-.1-.15-.16-.17-.1-.03-.23-.04-.25.14-.01.16-.03.32-.04.48,0,.04,0,.09,0,.13,0,7.74,0,15.49,0,23.23,0,.5,0,1,0,1.5,0,.21.12.26.29.27.2.01.19-.12.18-.26,0-.07,0-.14,0-.21Zm-13.09.46c.13.03.2-.02.21-.15.01-.21.03-.41.03-.62,0-8.23-.02-16.47-.03-24.7,0-.11.04-.26-.15-.27-.16-.01-.31,0-.33.21-.05.06-.09.13-.15.18-.1.1-.21.19-.31.28,0-.13-.02-.26-.02-.39,0-.34,0-.34-.34-.34q-.56,0-.56.57c0,6.97,0,13.95,0,20.92,0,1.34,0,2.68,0,4.01,0,.1.01.22.07.28.07.09.73,0,.83-.09.08.03.17.06.23.09.09-.07.17-.13.25-.19.06.11.1.24.27.2Zm28.52,2.12q.38.02.39-.34c0-.08,0-.16,0-.23,0-2.92,0-5.83,0-8.75,0-5.86,0-11.72,0-17.58,0-.27-.02-.55-.07-.82-.01-.08-.13-.13-.21-.2-.06.08-.15.16-.16.25-.03.24-.04.49-.05.74,0,.18.02.35.02.53,0,8.2,0,16.41,0,24.61,0,.52-.02,1.05-.02,1.57,0,.08.06.15.1.23ZM23.32.06q-.36,0-.36.34c0,7.93,0,15.86,0,23.8,0,1.15,0,2.3,0,3.44,0,.14-.04.31.2.3.2,0,.25-.1.24-.29,0-.61,0-1.22,0-1.84.15-.07.31-.14.46-.21,0,.24.18.23.32.2.07-.02.14-.15.15-.23.03-.3.04-.6.04-.9,0-7.93,0-15.85,0-23.78,0-.27-.03-.55-.04-.85-.18.03-.32.05-.47.08-.19-.02-.38-.03-.57-.05Zm10.7,25.7c.27.1.37.03.38-.23,0-.19.01-.38.01-.57,0-8.06,0-16.12,0-24.18,0-.24,0-.48,0-.75-.18.03-.31.06-.44.08-.05.05-.1.08-.14.14-.11.18-.21.36-.31.54-.01-.17-.02-.35-.04-.52,0-.05-.07-.14-.1-.15-.26-.01-.53,0-.8,0,0,2.34,0,4.64,0,6.94,0,6.08,0,12.15,0,18.23,0,.17-.06.4.02.5.07.09.32.03.49.03.14,0,.27-.03.41-.05,0-.02,0-.04,0-.05l.02-.36s.08.08.1.12c.05.21.18.32.4.29Zm-16.24,0c.14.06.31.15.35-.09.04-.2.05-.41.05-.61,0-8.1,0-16.21,0-24.31,0-.23-.04-.45-.07-.74-.15.06-.28.11-.4.16-.17-.02-.34-.03-.5-.05-.31-.02-.62-.05-.9-.07v25.81c.33-.05.61-.1.89-.15.18.18.39.07.58.05Zm19.54-.15c.05.12.11.28.26.2.09-.04.14-.18.17-.29.03-.09.01-.19.01-.28-.01-8.31-.03-16.63-.04-24.94,0-.09-.05-.18-.08-.28-.11.04-.21.07-.32.11-.16.07-.31.13-.47.2.02-.25-.13-.27-.33-.26-.24,0-.21.15-.2.3,0,.32.01.64.01.96,0,6.13,0,12.26,0,18.39,0,1.85,0,3.69,0,5.54,0,.19.01.38.02.56.52.03.41.03.5-.25.15.02.31.03.46.05Zm7.65,2.28c.12.02.24.05.39.08.02-.18.05-.32.05-.46,0-1.44,0-2.88,0-4.33,0-7.55,0-15.09,0-22.64,0-.13,0-.28-.06-.4-.03-.07-.15-.12-.23-.13-.05,0-.12.1-.14.17-.02.07,0,.15,0,.23-.16.09-.33.17-.49.26,0-.11-.03-.23,0-.34.05-.26-.12-.33-.3-.33-.21,0-.23.17-.22.33,0,.35.03.7.03,1.05,0,8.55,0,17.09,0,25.64,0,.14,0,.28-.02.41-.07.49-.05.51.42.49.02,0,.05-.01.07-.02,0-.1.01-.19.02-.29.06.03.17.05.18.1.04.18.17.16.3.16ZM4.81.26c.03-.25-.19-.19-.31-.24-.04-.02-.15.05-.17.1-.04.12-.06.25-.06.37,0,.4.02.8.02,1.21,0,8.65,0,17.3,0,25.96,0,.11.02.22.03.35.17-.03.31-.06.47-.09,0-.06.01-.11.01-.16,0-2.97,0-5.94,0-8.91,0-6.17,0-12.35,0-18.52,0-.02,0-.05,0-.07Zm4.76,25.51s0-.04,0-.06V.06c-.28,0-.52,0-.75,0-.07,0-.14.06-.21.1-.17.07-.33.14-.5.21.02-.1.03-.19.05-.3h-.93v25.74h.84c.02-.05.05-.1.07-.15.16-.02.33-.03.49-.05.02.07.04.14.07.23.29-.02.57-.05.86-.07ZM31.6.53v-.06c0-.12-.01-.23-.02-.35h-.91v25.68h.93v-.3c0-.05,0-.1,0-.16,0-5.15,0-10.29,0-15.44,0-3.13,0-6.25,0-9.38Zm-3.4-.37c-.08.06-.21.11-.24.19-.06.2-.11.42-.11.63,0,7.9,0,15.79,0,23.69,0,.34,0,.68.02,1.02,0,.06.13.13.2.16.05.02.13-.02.2-.04.37,0,.74,0,1.12,0,.18,0,.26-.06.24-.24,0-.07,0-.14,0-.21,0-8.31,0-16.62,0-24.92,0-.13,0-.25,0-.38-.43,0-.83,0-1.23,0-.06,0-.13.06-.19.1ZM2.41.07c0,.37,0,.71,0,1.05,0,8.75,0,17.49,0,26.24,0,.59,0,.58.6.58.24,0,.33-.06.33-.32,0-9.11,0-18.22,0-27.33,0-.07,0-.15,0-.23h-.92Zm18.18,0v25.74c.26,0,.5.01.74,0,.06,0,.17-.09.18-.15.03-.25.05-.5.05-.74,0-7.98,0-15.95,0-23.93,0-.3,0-.6,0-.91h-.96ZM6.22,25.82c0-.08.02-.12.02-.16,0-.77.02-1.54.02-2.3,0-6.21.01-12.41.01-18.62,0-1.48-.03-2.97-.03-4.45,0-.22-.13-.25-.29-.27-.21-.02-.18.13-.18.26,0,.35,0,.69,0,1.04,0,7.88,0,15.77,0,23.65,0,.22,0,.45.02.67,0,.07.1.15.17.18.07.03.17,0,.27,0ZM19.64.06c-.47,0-.47,0-.46.37,0,1.98.01,3.95.01,5.93,0,6.42,0,12.83,0,19.25,0,.13.02.22.15.19.09-.02.23-.07.24-.13.04-.2.05-.41.05-.61,0-7.97,0-15.94,0-23.91,0-.36,0-.71,0-1.09Zm6.64,12.95h0c0-4.09,0-8.19,0-12.28,0-.17-.03-.34-.03-.51,0-.17-.11-.16-.23-.17-.15,0-.2.06-.19.2.01.18.03.37.03.55,0,1.25-.01,2.5-.01,3.75,0,6.81,0,13.62,0,20.44,0,.22,0,.44.04.65.01.06.13.15.2.15.06,0,.15-.1.17-.17.03-.17.03-.34.03-.52,0-4.03,0-8.06,0-12.1Z"/>
            <path class="barcode-icon-cls-2" d="m40.62.22c.06-.05.12-.15.19-.15.41-.01.81,0,1.24,0,0,.21,0,.4,0,.59,0,8.98,0,17.95,0,26.93,0,.36,0,.36-.36.36-.33,0-.66,0-1.02,0v-2.15c0-.08,0-.15,0-.23,0-8.32,0-16.65,0-24.97,0-.12-.04-.25-.06-.37Z"/>
            <path d="m40.17,25.66c-.11.04-.21.08-.32.12-.26,0-.53,0-.79-.01-.1,0-.2,0-.3,0,0-8.24,0-16.49,0-24.73,0-.32,0-.64,0-.97h1.38c0,.11.01.2.02.3,0,.08,0,.15,0,.23,0,5.28,0,10.55,0,15.83,0,3.08,0,6.17,0,9.25Z"/>
            <path class="barcode-icon-cls-4" d="m28.2.16c.06-.03.12-.1.19-.1.4,0,.79,0,1.23,0,0,.13,0,.26,0,.38,0,8.31,0,16.62,0,24.92,0,.07,0,.14,0,.21.02.18-.06.25-.24.24-.37,0-.74,0-1.12,0,0-.22-.02-.45-.02-.67,0-7.34,0-14.67,0-22.01,0-.99-.03-1.98-.04-2.97Z"/>
            <path class="barcode-icon-cls-2" d="m2.41.07h.92c0,.08,0,.16,0,.23,0,9.11,0,18.22,0,27.33,0,.26-.09.32-.33.32-.59,0-.6,0-.6-.58,0-8.75,0-17.49,0-26.24,0-.34,0-.69,0-1.05Z"/>
            <path class="barcode-icon-cls-4" d="m20.59.07h.96c0,.31,0,.61,0,.91,0,7.98,0,15.95,0,23.93,0,.25-.01.5-.05.74,0,.06-.11.15-.18.15-.24.02-.48,0-.74,0V.07Z"/>
            <path d="m13.85,25.7c-.1.09-.76.18-.83.09-.06-.07-.07-.19-.07-.28,0-1.34,0-2.68,0-4.01,0-6.97,0-13.95,0-20.92q0-.57.56-.57c.33,0,.33,0,.34.34,0,.13.01.26.02.39,0,.17-.02.34-.02.52,0,4.27,0,8.55,0,12.82,0,3.88,0,7.75,0,11.63Z"/>
            <path d="m31.61,25.56v.25h-.93V.13h.91c0,.11.01.23.02.35,0,.02,0,.04,0,.06,0,3.13,0,6.25,0,9.38,0,5.15,0,10.29,0,15.44,0,.05,0,.1,0,.16v.06Z"/>
            <path d="m33.5,25.76c-.14.02-.27.04-.41.05-.17,0-.41.06-.49-.03-.09-.1-.02-.33-.02-.5,0-6.08,0-12.15,0-18.23,0-2.3,0-4.61,0-6.94.27,0,.53,0,.8,0,.04,0,.1.09.1.15.02.17.03.35.04.52,0,.16,0,.33,0,.49,0,7.56,0,15.12,0,22.67,0,.47,0,.93,0,1.4,0,.12-.01.24-.02.36,0,0-.02.01-.02.02,0,.01.01.03.02.04Z"/>
            <path d="m8.15,25.66c-.02.05-.05.1-.07.15h-.84V.07h.93c-.02.11-.04.2-.05.3,0,.26.02.53.02.79,0,7.32,0,14.64,0,21.95,0,.63-.02,1.25-.03,1.88,0,.22.03.44.04.66Z"/>
            <path class="barcode-icon-cls-4" d="m17.19,25.71c-.28.05-.56.09-.89.15V.04c.29.02.59.04.9.07,0,.26,0,.52,0,.78,0,.07-.01.14-.01.21,0,7.51,0,15.01,0,22.52,0,.41,0,.81.01,1.22,0,.29,0,.59,0,.88Z"/>
            <path d="m8.62.16c.07-.03.14-.09.21-.1.23-.01.47,0,.75,0v25.65s0,.04,0,.06c-.28.02-.56.05-.86.07-.03-.09-.05-.16-.07-.23,0-.14.03-.27.03-.41,0-7.8,0-15.61,0-23.41,0-.54-.03-1.08-.05-1.62Z"/>
            <path class="barcode-icon-cls-19" d="m.94.17c.12-.05.25-.1.37-.15.03.1.09.2.09.3.02.98.04,1.96.04,2.94,0,6.91,0,13.83,0,20.74,0,.79,0,1.59,0,2.38,0,.51,0,1.01,0,1.55-.22-.03-.43.14-.52-.15.01-.37.04-.74.04-1.11,0-1,0-2,0-3,0-7.29,0-14.58,0-21.88,0-.54-.01-1.09-.02-1.63Z"/>
            <path class="barcode-icon-cls-13" d="m4.81.33c0,6.17,0,12.35,0,18.52,0,2.97,0,5.94,0,8.91,0,.05,0,.1-.01.16-.16.03-.3.06-.47.09-.01-.13-.03-.24-.03-.35,0-8.65,0-17.3,0-25.96,0-.4-.02-.8-.02-1.21,0-.13.02-.26.06-.37.02-.05.13-.11.17-.1.12.05.34-.01.31.24,0,.02,0,.05,0,.07Z"/>
            <path class="barcode-icon-cls-1" d="m44.48.68c.16-.09.33-.17.49-.26,0,.18,0,.36,0,.54,0,7.68,0,15.36,0,23.04,0,1.29-.01,2.59-.02,3.88-.13,0-.26.02-.3-.16-.01-.04-.12-.07-.18-.1,0-.2,0-.4,0-.59,0-7.14,0-14.29,0-21.43,0-1.64,0-3.28,0-4.92Z"/>
            <path class="barcode-icon-cls-15" d="m36.85,25.56c-.09.27.02.27-.5.25,0-.18-.02-.37-.02-.56,0-1.85,0-3.69,0-5.54,0-6.13,0-12.26,0-18.39,0-.32,0-.64-.01-.96,0-.15-.03-.3.2-.3.2,0,.35.02.33.26,0,.15,0,.29,0,.44,0,6.36,0,12.72,0,19.08,0,1.91,0,3.81,0,5.72Z"/>
            <path class="barcode-icon-cls-12" d="m23.89.11c.15-.02.29-.05.47-.08.02.31.04.58.04.85,0,7.93,0,15.85,0,23.78,0,.3-.01.6-.04.9,0,.08-.08.22-.15.23-.14.03-.33.05-.32-.2-.01-.28-.03-.55-.04-.83.02-.12.05-.24.05-.37,0-6.27,0-12.55,0-18.82,0-1.48,0-2.95-.01-4.43,0-.35,0-.71,0-1.06Z"/>
            <path class="barcode-icon-cls-5" d="m40.17,25.66c0-3.08,0-6.17,0-9.25,0-5.28,0-10.55,0-15.83,0-.08,0-.15,0-.23.15-.04.3-.09.45-.13.02.12.06.25.06.37,0,8.32,0,16.65,0,24.97,0,.08,0,.15,0,.23-.17-.04-.34-.09-.5-.13Z"/>
            <path class="barcode-icon-cls-5" d="m8.62.16c.02.54.05,1.08.05,1.62,0,7.8,0,15.61,0,23.41,0,.14-.02.27-.03.41-.16.02-.33.03-.49.05-.01-.22-.04-.44-.04-.66,0-.63.03-1.25.03-1.88,0-7.32,0-14.64,0-21.95,0-.26-.02-.53-.02-.79.17-.07.33-.14.5-.21Z"/>
            <path class="barcode-icon-cls-13" d="m44.48.68c0,1.64,0,3.28,0,4.92,0,7.14,0,14.29,0,21.43,0,.2,0,.4,0,.59,0,.09-.01.19-.02.29-.02,0-.05.02-.07.02-.48.01-.49,0-.42-.49.02-.14.02-.27.02-.41,0-8.55,0-17.09,0-25.64,0-.35-.02-.7-.03-1.05,0-.16.02-.34.22-.33.18,0,.35.08.3.33-.02.11,0,.22,0,.34Z"/>
            <path class="barcode-icon-cls-5" d="m.94.17c0,.54.02,1.09.02,1.63,0,7.29,0,14.58,0,21.88,0,1,0,2,0,3,0,.37-.02.74-.04,1.11-.15-.05-.3-.1-.44-.16,0-.05-.01-.1-.02-.16,0-.13,0-.26,0-.39,0-8.22,0-16.45,0-24.67,0-.7,0-1.4,0-2.1.15-.05.31-.1.46-.15Z"/>
            <path class="barcode-icon-cls-14" d="m6.22,25.82c-.11,0-.2.02-.27,0-.07-.03-.16-.11-.17-.18-.02-.22-.02-.45-.02-.67,0-7.88,0-15.77,0-23.65,0-.35,0-.69,0-1.04,0-.13-.03-.28.18-.26.16.02.29.04.29.27,0,1.48.03,2.97.03,4.45,0,6.21,0,12.41-.01,18.62,0,.77-.01,1.54-.02,2.3,0,.04,0,.08-.02.16Z"/>
            <path class="barcode-icon-cls-17" d="m37.32.12c.11-.04.21-.07.32-.11.03.09.08.18.08.28.02,8.31.03,16.63.04,24.94,0,.09.02.2-.01.28-.04.11-.09.25-.17.29-.16.08-.22-.08-.26-.2,0-.33,0-.66,0-.98,0-8.17,0-16.34,0-24.5Z"/>
            <path class="barcode-icon-cls-16" d="m19.64.06c0,.37,0,.73,0,1.09,0,7.97,0,15.94,0,23.91,0,.2,0,.41-.05.61-.01.06-.15.12-.24.13-.14.02-.15-.06-.15-.19,0-6.42,0-12.83,0-19.25,0-1.98,0-3.95-.01-5.93,0-.38,0-.38.46-.37Z"/>
            <path d="m26.28,13.02c0,4.03,0,8.06,0,12.1,0,.17,0,.35-.03.52-.01.07-.11.17-.17.17-.07,0-.19-.08-.2-.15-.04-.21-.04-.44-.04-.65,0-6.81,0-13.62,0-20.44,0-1.25.01-2.5.01-3.75,0-.18-.02-.37-.03-.55-.01-.14.04-.21.19-.2.12,0,.23,0,.23.17,0,.17.03.34.03.51,0,4.09,0,8.19,0,12.28h0Z"/>
            <path class="barcode-icon-cls-16" d="m17.71.16c.13-.05.25-.1.4-.16.03.29.07.51.07.74,0,8.1,0,16.21,0,24.31,0,.2-.01.41-.05.61-.05.24-.21.15-.35.09-.02-.31-.04-.62-.06-.93,0-.06,0-.12,0-.18,0-5.93,0-11.85,0-17.78,0-2.03,0-4.05,0-6.08,0-.21,0-.42,0-.62Z"/>
            <path class="barcode-icon-cls-5" d="m37.32.12c0,8.17,0,16.34,0,24.5,0,.33,0,.66,0,.98-.15-.02-.31-.03-.46-.05,0-1.91,0-3.81,0-5.72,0-6.36,0-12.72,0-19.08,0-.15,0-.29,0-.44.16-.07.31-.13.47-.2Z"/>
            <path class="barcode-icon-cls-7" d="m13.85,25.7c0-3.88,0-7.75,0-11.63,0-4.27,0-8.55,0-12.82,0-.17.01-.34.02-.52.1-.09.21-.19.31-.28.06-.05.1-.12.15-.18.01.17.02.34.03.52,0,.16-.02.33-.02.49,0,6.51,0,13.01,0,19.52,0,1.6,0,3.21-.01,4.81-.08.06-.16.12-.25.19-.06-.02-.15-.06-.23-.09Z"/>
            <path class="barcode-icon-cls-7" d="m33.52,25.35c0-.47,0-.93,0-1.4,0-7.56,0-15.12,0-22.67,0-.16,0-.33,0-.49.1-.18.21-.36.31-.54.03-.05.09-.09.14-.14,0,1.67,0,3.35,0,5.02,0,6.66,0,13.33,0,19.99,0,.21.03.42.04.64-.23.03-.35-.08-.4-.29-.01-.05-.06-.08-.1-.12Z"/>
            <path class="barcode-icon-cls-3" d="m23.43,25.81c0,.61-.02,1.22,0,1.84,0,.19-.04.28-.24.29-.25,0-.2-.16-.2-.3,0-1.15,0-2.3,0-3.44,0-7.93,0-15.86,0-23.8q0-.35.36-.34c.03.24.07.48.1.72,0,.06-.02.12-.02.18,0,7.71,0,15.42,0,23.12,0,.4.01.81.02,1.21,0,.17,0,.34,0,.52Z"/>
            <path class="barcode-icon-cls-20" d="m44.97,27.89c0-1.29.02-2.59.02-3.88,0-7.68,0-15.36,0-23.04,0-.18,0-.36,0-.54,0-.08-.02-.16,0-.23.03-.07.1-.18.14-.17.08,0,.2.06.23.13.05.12.06.26.06.4,0,7.55,0,15.09,0,22.64,0,1.44,0,2.88,0,4.33,0,.14-.03.28-.05.46-.15-.03-.27-.06-.39-.08Z"/>
            <path class="barcode-icon-cls-20" d="m34.02,25.76c-.01-.21-.04-.42-.04-.64,0-6.66,0-13.33,0-19.99,0-1.67,0-3.35,0-5.02.13-.02.26-.05.44-.08,0,.28,0,.51,0,.75,0,8.06,0,16.12,0,24.18,0,.19,0,.38-.01.57,0,.26-.11.33-.38.23Z"/>
            <path class="barcode-icon-cls-7" d="m28.2.16c.01.99.04,1.98.04,2.97,0,7.34,0,14.67,0,22.01,0,.22.02.45.02.67-.07.01-.14.06-.2.04-.08-.03-.2-.1-.2-.16-.02-.34-.02-.68-.02-1.02,0-7.9,0-15.79,0-23.69,0-.21.05-.43.11-.63.03-.08.16-.13.24-.19Z"/>
            <path class="barcode-icon-cls-2" d="m43.03.99c.01-.25.02-.49.05-.74.01-.09.11-.17.16-.25.07.07.19.12.21.2.04.27.07.54.07.82,0,5.86,0,11.72,0,17.58,0,2.92,0,5.83,0,8.75,0,.08,0,.16,0,.23q-.01.37-.39.34c.03-.35.1-.7.1-1.05,0-8.46,0-16.92,0-25.38,0-.08.02-.17,0-.23-.05-.1-.13-.18-.19-.27Z"/>
            <path class="barcode-icon-cls-18" d="m14.36.79c-.01-.17-.02-.34-.03-.52.01-.22.16-.22.33-.21.19.01.15.16.15.27.01,8.23.02,16.47.03,24.7,0,.21-.02.41-.03.62,0,.13-.08.18-.21.15,0-.17.01-.34,0-.51-.01-.24-.06-.48-.06-.72,0-7.57,0-15.15,0-22.72,0-.15.02-.31.04-.46.03-.24-.08-.54-.23-.61Z"/>
            <path class="barcode-icon-cls-2" d="m27.23.68c.01-.16.03-.32.04-.48.01-.17.14-.16.25-.14.07.02.16.1.16.17.03.31.05.63.05.95,0,7.94,0,15.88,0,23.82,0,.11-.03.23-.04.34-.07-.06-.18-.1-.21-.17-.05-.12-.05-.25-.05-.38,0-7.88,0-15.75,0-23.63,0-.08.02-.17,0-.23-.04-.1-.13-.17-.19-.26Z"/>
            <path class="barcode-icon-cls-20" d="m.46,27.47c0,.05.01.1.02.16q-.01.32-.48.3c0-.08,0-.16,0-.25C0,18.67,0,9.65,0,.63c0-.05,0-.1,0-.15.03.03.09.06.09.1.06.42.15.84.15,1.26,0,7.69,0,15.38,0,23.07,0,.76,0,1.52,0,2.28,0,.14-.01.29.2.28Z"/>
            <path class="barcode-icon-cls-21" d="m21.99,26.7c0-.19,0-.38,0-.57.06-.06.17-.1.19-.17.04-.17.06-.36.06-.53,0-8.2,0-16.4,0-24.6,0-.2-.05-.32-.26-.34,0-.07,0-.14,0-.21-.03-.19.07-.26.24-.26.17,0,.23.08.23.25.01,3.67.04,7.33.04,11,0,4.78,0,9.56,0,14.35,0,.1,0,.21,0,.31-.06.05-.16.1-.19.16-.07.15-.1.32-.17.48-.02.05-.09.09-.14.14Z"/>
            <path class="barcode-icon-cls-2" d="m11.02.63c0-.09,0-.17,0-.26,0-.16-.01-.31.24-.32.26,0,.23.15.23.3,0,3.47.01,6.94.01,10.41,0,4.73,0,9.46,0,14.19,0,.22,0,.43-.02.65,0,.07-.06.2-.1.2-.09,0-.18-.05-.26-.08.05-.14.13-.27.14-.41.02-.16-.04-.32-.04-.48,0-7.9,0-15.79,0-23.69,0-.08.02-.17,0-.23-.05-.1-.13-.18-.19-.27Z"/>
            <path class="barcode-icon-cls-22" d="m21.99.48c.2.03.26.15.26.34,0,8.2,0,16.4,0,24.6,0,.18-.02.36-.06.53-.02.07-.12.11-.19.17,0-.91-.02-1.83-.02-2.74,0-7.41,0-14.83,0-22.24,0-.22.01-.44.02-.67Z"/>
            <path class="barcode-icon-cls-3" d="m.46,27.47c-.21.01-.2-.14-.2-.28,0-.76,0-1.52,0-2.28,0-7.69,0-15.38,0-23.07,0-.42-.1-.84-.15-1.26,0-.04-.06-.07-.09-.1C.02.35,0,.18.06.1.2-.09.37,0,.48.32c0,.7,0,1.4,0,2.1,0,8.22,0,16.45,0,24.67,0,.13,0,.26,0,.39Z"/>
            <path class="barcode-icon-cls-20" d="m27.23.68c.07.09.15.16.19.26.03.06,0,.15,0,.23,0,7.88,0,15.75,0,23.63,0,.13,0,.26.05.38.03.07.14.11.21.17,0,.07,0,.14,0,.21.01.14.02.27-.18.26-.17-.01-.29-.05-.29-.27,0-.5,0-1,0-1.5,0-7.74,0-15.49,0-23.23,0-.04,0-.09,0-.13Z"/>
            <path class="barcode-icon-cls-12" d="m14.36.79c.15.07.26.38.23.61-.02.15-.04.31-.04.46,0,7.57,0,15.15,0,22.72,0,.24.04.48.06.72,0,.17,0,.34,0,.51-.17.05-.21-.09-.27-.2,0-1.6.01-3.21.01-4.81,0-6.51,0-13.01,0-19.52,0-.16.01-.33.02-.49Z"/>
            <path class="barcode-icon-cls-17" d="m11.02.63c.07.09.15.17.19.27.03.06,0,.15,0,.23,0,7.9,0,15.79,0,23.69,0,.16.05.33.04.48-.02.14-.09.27-.14.41-.03-.05-.08-.1-.1-.16-.02-.06,0-.14,0-.21,0-8.12,0-16.24,0-24.36,0-.12,0-.24,0-.36Z"/>
            <path class="barcode-icon-cls-20" d="m43.03.99c.07.09.15.17.19.27.03.06,0,.15,0,.23,0,8.46,0,16.92,0,25.38,0,.35-.06.7-.1,1.05-.03-.08-.1-.15-.1-.23,0-.52.02-1.05.02-1.57,0-8.2,0-16.41,0-24.61,0-.18-.01-.35-.02-.53Z"/>
            <path class="barcode-icon-cls-14" d="m21.99,26.7s.12-.08.14-.14c.06-.16.1-.33.17-.48.03-.07.12-.11.19-.16,0,.6,0,1.21.01,1.81,0,.15-.05.23-.21.21-.09,0-.19,0-.3,0,0-.42,0-.83,0-1.24Z"/>
            <path class="barcode-icon-cls-1" d="m39.75,26.33c-.36-.02-.73-.04-1.09-.06.04-.17.07-.34.11-.51.1,0,.2,0,.3,0,.26,0,.53,0,.79.01-.03.19-.07.37-.1.56Z"/>
            <path class="barcode-icon-cls-8" d="m17.71,24.83c.02.31.04.62.06.93-.2.02-.4.13-.58-.05,0-.29,0-.59,0-.88.17,0,.34,0,.51,0Z"/>
            <path class="barcode-icon-cls-1" d="m23.42.78c-.03-.24-.07-.48-.1-.72.19.02.38.03.57.05,0,.35,0,.71,0,1.06-.08-.07-.16-.15-.25-.22-.07-.06-.15-.11-.22-.16Z"/>
            <path class="barcode-icon-cls-8" d="m17.71.16c0,.21,0,.42,0,.62-.17.03-.34.07-.51.1,0-.26,0-.52,0-.78.17.02.34.03.5.05Z"/>
            <path class="barcode-icon-cls-1" d="m23.43,25.81c0-.17,0-.34,0-.52.23.01.19-.19.26-.31.05-.08.11-.14.17-.21.01.28.03.55.04.83-.15.07-.31.14-.46.21Z"/>
            <path class="barcode-icon-cls-22" d="m36.48,26.33s-.07-.02-.11-.03c.04.01.07.02.11.03Z"/>
            <path class="barcode-icon-cls-22" d="m36.06,26.29s-.04,0-.05,0c.02,0,.04,0,.05,0Z"/>
            <path class="barcode-icon-cls-13" d="m33.5,25.76s-.02-.02-.02-.04c0,0,.01,0,.02-.02,0,.02,0,.04,0,.05Z"/>
            <path class="barcode-icon-cls-11" d="m9.57,25.77v-.06s0,.04,0,.06Z"/>
            <path class="barcode-icon-cls-9" d="m31.61,25.56v-.06s0,.04,0,.06Z"/>
            <path class="barcode-icon-cls-23" d="m4.81.33s0-.05,0-.07c0,.02,0,.05,0,.07Z"/>
            <path class="barcode-icon-cls-9" d="m31.6.53s0-.04,0-.06c0,.02,0,.04,0,.06Z"/>
            <path class="barcode-icon-cls-10" d="m17.2.89c.17-.03.34-.07.51-.1,0,2.03,0,4.05,0,6.08,0,5.93,0,11.85,0,17.78,0,.06,0,.12,0,.18-.17,0-.34,0-.51,0,0-.41-.01-.81-.01-1.22,0-7.51,0-15.01,0-22.52,0-.07,0-.14.01-.21Z"/>
            <path class="barcode-icon-cls-8" d="m23.85,24.78c-.06.07-.12.13-.17.21-.07.12-.03.32-.26.31,0-.4-.02-.81-.02-1.21,0-7.71,0-15.42,0-23.12,0-.06.01-.12.02-.18.07.05.15.1.22.16.08.07.16.15.25.22,0,1.48.01,2.95.01,4.43,0,6.27,0,12.55,0,18.82,0,.12-.03.24-.05.37Z"/>
        </g>
    </g>
</svg>