<?xml version="1.0" encoding="UTF-8"?>
<svg id="Layer_2" data-name="Layer 2" xmlns="http://www.w3.org/2000/svg" viewBox="0 0 40.7 40.67">
  <defs>
    <style>
      .cls-1 {
        fill: lime;
      }

      .cls-1, .cls-2, .cls-3, .cls-4, .cls-5, .cls-6, .cls-7, .cls-8, .cls-9 {
        stroke: #4d4d4d;
        stroke-miterlimit: 10;
      }

      .cls-2 {
        fill: blue;
      }

      .cls-3 {
        fill: #662d91;
      }

      .cls-4 {
        fill: red;
      }

      .cls-5 {
        fill: #ff0;
      }

      .cls-6 {
        fill: #fff;
      }

      .cls-7 {
        fill: #f15a24;
      }

      .cls-8 {
        fill: #1b1464;
      }

      .cls-9 {
        fill: none;
      }
    </style>
  </defs>
  <g id="Layer_7" data-name="Layer 7">
    <g>
      <path class="cls-9" d="m8.55,20.67c.09,3.02,1.34,5.94,3.53,8.09"/>
      <path class="cls-9" d="m20.18,32.13c3.04.04,6.02-1.09,8.26-3.2"/>
      <path class="cls-9" d="m11.75,12.25c-.73.77-1.37,1.65-1.88,2.64-.96,1.85-1.38,3.84-1.32,5.78"/>
      <path class="cls-9" d="m28.44,28.93c.95-.89,1.77-1.94,2.4-3.16.85-1.63,1.27-3.38,1.32-5.1"/>
      <path class="cls-9" d="m20.18,8.52c-3.16.05-6.22,1.37-8.43,3.72"/>
      <path class="cls-9" d="m12.08,28.77c.82.8,1.76,1.5,2.83,2.05,1.69.88,3.49,1.29,5.26,1.32"/>
      <path class="cls-4" d="m20.18,8.52V.5c-5.27.05-10.38,2.2-14.1,6.06l5.68,5.68c2.21-2.35,5.27-3.67,8.43-3.72Z"/>
      <path class="cls-6" d="m20.18.5v8.02"/>
      <path class="cls-8" d="m37.97,29.47c1.46-2.82,2.17-5.83,2.22-8.8h-8.03c-.05,1.73-.47,3.47-1.32,5.1-.63,1.22-1.46,2.27-2.4,3.16l5.68,5.68c1.51-1.46,2.83-3.17,3.85-5.14Z"/>
      <path class="cls-3" d="m34.63,6.55l-5.71,5.65c2.17,2.29,3.32,5.35,3.23,8.47h8.03c.08-5.21-1.89-10.32-5.56-14.12Z"/>
      <path class="cls-5" d="m8.55,20.67H.51c.09,5.13,2.18,10.11,5.89,13.78l5.68-5.68c-2.2-2.15-3.44-5.07-3.53-8.09Z"/>
      <path class="cls-7" d="m9.87,14.89c.51-.99,1.15-1.87,1.88-2.64l-5.68-5.68c-1.29,1.34-2.43,2.88-3.33,4.62-1.58,3.04-2.29,6.29-2.23,9.48h8.04c-.06-1.95.36-3.93,1.32-5.78Z"/>
      <path class="cls-1" d="m14.91,30.82c-1.07-.55-2.01-1.25-2.83-2.05l-5.68,5.68c1.38,1.37,2.99,2.55,4.81,3.5,2.87,1.49,5.94,2.19,8.97,2.22v-8.03c-1.78-.03-3.58-.44-5.26-1.32Z"/>
      <path class="cls-2" d="m20.18,32.13v8.03c5.15.04,10.18-1.93,13.94-5.55l-5.68-5.68c-2.24,2.11-5.22,3.24-8.26,3.2Z"/>
    </g>
  </g>
</svg>