<?xml version="1.0" encoding="UTF-8"?>
<svg id="Layer_2" data-name="Layer 2" xmlns="http://www.w3.org/2000/svg" viewBox="0 0 29.48 36.23">
  <defs>
    <style>
      .cls-1 {
        fill: #fff;
        stroke: #000;
        stroke-miterlimit: 10;
      }
    </style>
  </defs>
  <g id="Layer_5" data-name="Layer 5">
    <g id="Dxu5mS.tif">
      <g>
        <path class="cls-1" d="m1.14,20.35s-.03,0-.04,0c-.15.06-.16.19-.15.32.03.77-.05,1.54.06,2.3.04.25.08.51.16.75.12.33.27.65.42.96.21.43.51.78.87,1.09.43.38.93.64,1.46.86.48.2.99.29,1.5.31,1.09.04,2.18.01,3.27.01.28,0,.57,0,.85,0,.15,0,.2.06.21.21,0,.29.01.59.01.88,0,.55,0,1.09,0,1.64,0,.63.02,1.25.04,1.88,0,.32.07.64.16.95.22.79.66,1.45,1.24,2.01.5.49,1.11.81,1.79,1,.45.13.9.23,1.38.18.32-.03.63-.06.95-.16.45-.15.89-.3,1.26-.59.87-.65,1.54-1.44,1.8-2.54.11-.47.19-.93.19-1.41,0-1.28,0-2.56,0-3.84,0-.17.05-.22.22-.22,1.24,0,2.48,0,3.73,0,.19,0,.38,0,.57-.03.48-.06.96-.13,1.41-.32.41-.17.81-.36,1.16-.64.21-.17.4-.38.59-.58.45-.47.71-1.05.92-1.66.03-.07.07-.14.08-.21.04-.3.07-.61.11-.91,0-.05.01-.09.02-.14,0-.61,0-1.22,0-1.84,0-.18-.07-.25-.27-.28-.08,0-.15-.03-.23-.03-8.44,0-16.88,0-25.32,0-.07,0-.14,0-.21,0-.05,0-.09,0-.14,0,0,0-.02,0-.03,0-.02,0-.04,0-.05,0Zm13.1-2.24h0c4.28,0,8.55,0,12.83,0,.27,0,.32-.04.32-.32,0-2.2,0-4.39,0-6.59,0-1.32.01-2.64,0-3.96-.02-1.31.1-2.63-.11-3.94-.04-.23-.07-.48-.17-.69-.34-.77-.84-1.41-1.65-1.74-.21-.09-.44-.13-.66-.2-.46-.13-.92-.18-1.39-.18-1.47.01-2.93,0-4.4,0-.64,0-1.27,0-1.91,0-.33,0-.66.06-.82.41-.18.39-.35.79-.51,1.18-.12.28-.22.57-.34.86-.12.3-.24.6-.37.89-.12.27-.25.54-.41.79-.21.32-.74.34-.95.02-.18-.28-.32-.58-.45-.89-.25-.59-.49-1.18-.73-1.77-.12-.29-.23-.59-.35-.87-.18-.42-.32-.6-.92-.62-.26,0-.51,0-.77,0-.42,0-.74.17-.9.58-.2.51-.41,1.02-.62,1.53-.25.61-.5,1.21-.77,1.81-.06.13-.17.25-.28.35-.19.16-.58.14-.74-.04-.12-.13-.23-.29-.3-.45-.2-.45-.38-.92-.57-1.38-.26-.64-.53-1.28-.79-1.92-.11-.27-.35-.46-.63-.46-.37,0-.74,0-1.11.08-.39.09-.78.17-1.13.37-.73.42-1.22,1.05-1.48,1.84-.14.4-.2.81-.2,1.24,0,4.36,0,8.72,0,13.08,0,.26,0,.51,0,.77,0,.17.07.23.23.22.11,0,.23-.02.34-.02,4.24,0,8.47,0,12.71,0Z"/>
        <path class="cls-1" d="m14.24,18.11c-4.24,0-8.47,0-12.71,0-.11,0-.23.01-.34.02-.16.01-.23-.05-.23-.22,0-.26,0-.51,0-.77,0-4.36,0-8.72,0-13.08,0-.42.07-.84.2-1.24.27-.8.76-1.42,1.48-1.84.35-.2.74-.28,1.13-.37.37-.09.74-.08,1.11-.08.28,0,.52.19.63.46.26.64.52,1.28.79,1.92.19.46.37.92.57,1.38.07.16.18.32.3.45.16.18.54.2.74.04.11-.09.22-.21.28-.35.27-.6.51-1.21.77-1.81.21-.51.42-1.02.62-1.53.16-.42.48-.58.9-.58.26,0,.51,0,.77,0,.6.01.74.19.92.62.12.29.23.58.35.87.24.59.48,1.18.73,1.77.13.3.27.61.45.89.21.32.74.3.95-.02.16-.25.28-.52.41-.79.13-.29.25-.59.37-.89.11-.28.22-.57.34-.86.17-.4.33-.79.51-1.18.16-.35.49-.4.82-.41.64-.01,1.27,0,1.91,0,1.47,0,2.93,0,4.4,0,.48,0,.94.05,1.39.18.22.06.45.11.66.2.81.33,1.31.97,1.65,1.74.09.21.13.46.17.69.2,1.31.09,2.62.11,3.94.02,1.32,0,2.64,0,3.96,0,2.2,0,4.39,0,6.59,0,.27-.04.32-.32.32-4.28,0-8.55,0-12.83,0h0Z"/>
        <path class="cls-1" d="m27.11,20.36c.2.03.27.1.27.28,0,.61,0,1.22,0,1.84,0,.05-.01.09-.02.14-.04.3-.07.61-.11.91-.01.07-.06.14-.08.21-.22.6-.47,1.19-.92,1.66-.19.2-.37.4-.59.58-.35.28-.75.47-1.16.64-.45.19-.93.26-1.41.32-.19.02-.38.02-.57.03-1.24,0-2.48,0-3.73,0-.17,0-.22.05-.22.22,0,1.28,0,2.56,0,3.84,0,.48-.08.94-.19,1.41-.26,1.1-.93,1.89-1.8,2.54-.37.28-.82.44-1.26.59-.31.1-.63.13-.95.16-.47.05-.92-.05-1.38-.18-.68-.2-1.29-.51-1.79-1-.58-.56-1.02-1.22-1.24-2.01-.09-.31-.15-.63-.16-.95-.02-.63-.03-1.25-.04-1.88,0-.55,0-1.09,0-1.64,0-.29-.01-.59-.01-.88,0-.14-.06-.21-.21-.21-.28,0-.57,0-.85,0-1.09,0-2.18.03-3.27-.01-.5-.02-1.01-.11-1.5-.31-.53-.22-1.03-.48-1.46-.86-.36-.31-.66-.66-.87-1.09-.15-.32-.31-.63-.42-.96-.09-.24-.13-.5-.16-.75-.11-.77-.03-1.54-.06-2.3,0-.13,0-.26.15-.32.01,0,.03,0,.04,0,.02,0,.04,0,.05,0,0,0,.02,0,.03,0,.05,0,.09,0,.14,0,.04.03.07.07.11.08.08.02.16.02.24.02,6.81,0,13.61,0,20.42,0,1.57,0,3.14,0,4.72,0,.09,0,.18-.05.27-.08Zm-12.94,9.93c-.51-.05-1.12.44-1.07,1.1.04.56.45,1.07,1.05,1.05.73-.03,1.07-.44,1.09-1.09.02-.57-.35-1.04-1.06-1.06Z"/>
        <path class="cls-1" d="m27.11,20.36c-.09.03-.18.08-.27.08-1.57,0-3.14,0-4.72,0-6.81,0-13.61,0-20.42,0-.08,0-.17,0-.24-.02-.04,0-.07-.05-.11-.08.07,0,.14,0,.21,0,8.44,0,16.88,0,25.32,0,.08,0,.15.02.23.03Z"/>
        <path class="cls-1" d="m27.36,22.62s.01-.09.02-.14c0,.05-.01.09-.02.14Z"/>
        <path class="cls-1" d="m1.14,20.35s-.03,0-.04,0c.01,0,.03,0,.04,0Z"/>
        <path class="cls-1" d="m1.23,20.35s-.02,0-.03,0c0,0,.02,0,.03,0Z"/>
        <path class="cls-1" d="m14.18,30.3c.71.02,1.08.49,1.06,1.06-.02.65-.35,1.06-1.09,1.09-.6.03-1.02-.48-1.05-1.05-.04-.66.56-1.15,1.07-1.1Z"/>
      </g>
    </g>
  </g>
</svg>