<?xml version="1.0" encoding="UTF-8"?>
<svg id="Layer_2" data-name="Layer 2" xmlns="http://www.w3.org/2000/svg" viewBox="0 0 36.23 36.23">
  <defs>
    <style>
      .cls-1 {
        fill: #fdfdff;
      }

      .cls-2 {
        fill: #6b798e;
      }

      .cls-3 {
        fill: #666f86;
      }

      .cls-4 {
        fill: #66758f;
      }

      .cls-5 {
        fill: #42516d;
      }

      .cls-6 {
        fill: #45546e;
      }

      .cls-7 {
        fill: #2c405b;
      }

      .cls-8 {
        fill: #757c94;
      }

      .cls-9 {
        fill: #fff;
        stroke: #000;
        stroke-miterlimit: 10;
      }
    </style>
  </defs>
  <g id="Layer_5" data-name="Layer 5">
    <g id="GOPm1z.tif">
      <g>
        <path class="cls-1" d="m18.02,35.72c.89-.01,1.79.04,2.67-.16.51-.12,1.03-.18,1.55-.29.29-.06.56-.16.84-.25.49-.16.98-.31,1.45-.51.61-.25,1.21-.54,1.82-.81.18-.08.37-.16.54-.27.65-.43,1.3-.86,1.93-1.32.34-.25.63-.54.94-.83.38-.35.77-.68,1.11-1.06.53-.6,1.06-1.21,1.54-1.85.46-.63.93-1.26,1.25-1.99.27-.62.6-1.22.85-1.85.25-.63.43-1.29.62-1.94.09-.3.14-.6.2-.9.02-.09,0-.2.03-.28.13-.35.18-.71.21-1.07.03-.34.06-.68.08-1.03.03-.34.06-.69.08-1.03,0-.22-.01-.44-.02-.66-.02-.25-.03-.51-.06-.76-.03-.34-.07-.68-.11-1.01-.02-.22-.03-.44-.07-.65-.07-.38-.15-.76-.24-1.13-.07-.3-.13-.6-.22-.89-.09-.31-.23-.6-.31-.91-.27-.96-.73-1.85-1.19-2.72-.33-.62-.74-1.2-1.14-1.78-.54-.78-1.19-1.47-1.86-2.13-.83-.82-1.72-1.57-2.71-2.2-.52-.33-1.02-.69-1.58-.94-.17-.07-.33-.15-.5-.23-1.06-.53-2.16-.95-3.31-1.22-.36-.08-.73-.13-1.09-.21-.51-.12-1.02-.21-1.54-.21-.24,0-.48-.03-.72-.05-.24-.02-.47-.08-.7-.08-.41,0-.82.04-1.23.07-.36.03-.72.06-1.09.1-.26.03-.52.06-.77.1-.22.03-.43.07-.64.12-.43.09-.87.13-1.28.28-.82.29-1.66.53-2.43.93-.55.28-1.14.49-1.66.82-.79.5-1.58,1-2.28,1.62-.51.46-1.05.89-1.53,1.39-.86.91-1.64,1.86-2.3,2.93-.1.16-.21.31-.3.48-.18.36-.36.72-.53,1.08-.16.32-.34.62-.47.95-.16.39-.29.79-.41,1.19-.19.6-.39,1.19-.49,1.81-.05.33-.15.65-.2.99-.05.36-.08.72-.12,1.08-.04.36-.1.71-.1,1.07-.01.51,0,1.02.03,1.52.02.33.09.66.1.99.02.4.08.79.17,1.18.06.27.08.56.15.83.11.44.24.88.37,1.31.25.81.52,1.62.91,2.38.24.46.44.94.71,1.38.52.83,1.05,1.66,1.73,2.38.34.36.62.77.98,1.1.73.66,1.42,1.37,2.26,1.9.62.39,1.18.87,1.85,1.18.86.41,1.71.84,2.62,1.13.37.12.75.21,1.1.36.39.16.8.19,1.2.29.35.08.71.12,1.07.18.25.04.49.11.74.12.5.02,1.01,0,1.51,0Z"/>
        <path class="cls-9" d="m18.02,35.72c-.5,0-1.01.01-1.51,0-.25,0-.5-.08-.74-.12-.36-.06-.72-.1-1.07-.18-.4-.1-.81-.12-1.2-.29-.35-.15-.73-.24-1.1-.36-.91-.29-1.76-.73-2.62-1.13-.67-.32-1.23-.79-1.85-1.18-.84-.53-1.53-1.24-2.26-1.9-.36-.33-.64-.74-.98-1.1-.68-.72-1.21-1.55-1.73-2.38-.27-.44-.47-.92-.71-1.38-.4-.76-.67-1.56-.91-2.38-.13-.44-.26-.87-.37-1.31-.07-.27-.09-.56-.15-.83-.09-.39-.15-.78-.17-1.18-.02-.33-.09-.66-.1-.99-.02-.51-.04-1.02-.03-1.52,0-.36.07-.71.1-1.07.04-.36.06-.72.12-1.08.05-.33.15-.65.2-.99.1-.62.31-1.22.49-1.81.12-.4.26-.8.41-1.19.13-.32.31-.63.47-.95.18-.36.35-.72.53-1.08.09-.17.2-.32.3-.48.66-1.06,1.44-2.02,2.3-2.93.47-.5,1.01-.93,1.53-1.39.7-.63,1.5-1.12,2.28-1.62.52-.33,1.11-.54,1.66-.82.78-.4,1.62-.63,2.43-.93.41-.15.85-.19,1.28-.28.21-.04.43-.08.64-.12.26-.04.51-.08.77-.1.36-.04.72-.07,1.09-.1.41-.03.82-.06,1.23-.07.23,0,.47.05.7.08.24.02.48.05.72.05.52,0,1.03.09,1.54.21.36.08.73.13,1.09.21,1.15.27,2.25.69,3.31,1.22.16.08.33.16.5.23.56.25,1.06.61,1.58.94.99.63,1.88,1.38,2.71,2.2.67.66,1.32,1.35,1.86,2.13.4.58.81,1.16,1.14,1.78.46.88.92,1.76,1.19,2.72.09.31.22.6.31.91.09.29.15.59.22.89.08.38.17.75.24,1.13.04.21.04.43.07.65.03.34.07.68.11,1.01.02.25.04.51.06.76.01.22.03.44.02.66-.01.34-.05.69-.08,1.03-.03.34-.05.68-.08,1.03-.03.37-.08.73-.21,1.07-.03.09-.02.19-.03.28-.06.3-.11.61-.2.9-.19.65-.38,1.31-.62,1.94-.25.63-.57,1.23-.85,1.85-.32.72-.79,1.36-1.25,1.99-.48.64-1,1.25-1.54,1.85-.34.38-.74.72-1.11,1.06-.31.28-.6.58-.94.83-.63.46-1.28.89-1.93,1.32-.17.11-.36.19-.54.27-.6.27-1.2.56-1.82.81-.47.19-.96.34-1.45.51-.28.09-.55.19-.84.25-.51.11-1.04.17-1.55.29-.88.21-1.78.15-2.67.16Zm14.32-16.39c.05-.12.12-.24.16-.37.02-.07.03-.17-.08-.21v-1.23c.04-.17.06-.34-.08-.47-.01-.14-.01-.29-.03-.43-.05-.43-.1-.86-.17-1.28-.06-.36-.12-.73-.23-1.08-.22-.68-.4-1.37-.73-2.01-.31-.6-.59-1.23-.99-1.79-.24-.34-.44-.7-.7-1.02-.55-.69-1.13-1.36-1.82-1.93-.4-.33-.79-.67-1.21-.97-.48-.35-.96-.72-1.51-.97-.17-.07-.33-.15-.5-.23-.37-.17-.72-.35-1.1-.5-.41-.16-.83-.3-1.25-.42-.38-.11-.78-.18-1.17-.26-.4-.08-.78-.22-1.2-.22-.5,0-1-.06-1.5-.07-.41,0-.82.04-1.23.05-.48,0-.95.02-1.42.16-.31.09-.64.12-.94.21-.48.13-.96.27-1.42.45-.63.24-1.24.52-1.85.79-.16.07-.33.15-.47.25-.82.57-1.69,1.08-2.41,1.8-.3.3-.62.58-.92.88-.73.73-1.31,1.58-1.84,2.46-.38.64-.75,1.3-.98,2.02-.2.61-.47,1.2-.57,1.84-.02.1-.02.21-.05.31-.18.57-.21,1.16-.26,1.74-.07.12-.09.24-.04.37-.02.21-.04.43-.05.64,0,.38,0,.76,0,1.15,0,.23.05.47.08.7.02.21.04.43.08.63.05.3.13.59.19.89.04.21.06.43.12.63.1.33.22.66.33.99.1.29.18.59.3.87.21.46.44.91.68,1.35.54.99,1.21,1.89,1.97,2.72.52.57,1.05,1.14,1.68,1.58.74.53,1.45,1.09,2.29,1.46.34.15.65.36.99.49.61.24,1.24.46,1.87.64.45.13.93.19,1.39.28.18.03.35.07.53.11.11.11.3.12.41.03.2,0,.4.02.6.02.35.01.71.03,1.06.02.41,0,.82-.03,1.23-.05.12.06.32.03.44-.08.02,0,.04,0,.05,0,.39-.07.78-.14,1.17-.22.31-.06.62-.13.92-.23.68-.22,1.37-.43,2.01-.76.31-.16.64-.3.94-.48.9-.53,1.73-1.16,2.53-1.82.69-.57,1.23-1.26,1.78-1.95.51-.64.97-1.32,1.33-2.06.24-.51.54-.99.69-1.54.07-.27.19-.53.28-.8.08-.25.16-.5.22-.76.05-.21.06-.43.12-.63.17-.55.2-1.12.24-1.69Z"/>
        <path class="cls-1" d="m32.42,17.52c0,.41,0,.82,0,1.23-.03.19-.05.39-.08.58-.04.57-.07,1.14-.24,1.69-.06.2-.07.42-.12.63-.06.26-.14.51-.22.76-.09.27-.2.53-.28.8-.15.55-.45,1.03-.69,1.54-.36.74-.81,1.43-1.33,2.06-.55.68-1.09,1.38-1.78,1.95-.8.66-1.63,1.29-2.53,1.82-.3.18-.63.31-.94.48-.64.33-1.33.55-2.01.76-.3.1-.61.16-.92.23-.39.08-.78.15-1.17.22-.02,0-.04,0-.05,0-.15.03-.29.05-.44.08-.41.02-.82.05-1.23.05-.35,0-.71-.01-1.06-.02-.2,0-.4-.02-.6-.02l-.41-.03c-.18-.04-.35-.08-.53-.11-.46-.09-.94-.15-1.39-.28-.63-.18-1.25-.41-1.87-.64-.34-.13-.66-.34-.99-.49-.83-.38-1.55-.94-2.29-1.46-.63-.45-1.16-1.01-1.68-1.58-.76-.83-1.43-1.73-1.97-2.72-.24-.44-.47-.89-.68-1.35-.13-.28-.2-.58-.3-.87-.11-.33-.24-.65-.33-.99-.06-.21-.08-.42-.12-.63-.06-.3-.13-.59-.19-.89-.04-.21-.05-.42-.08-.63-.03-.23-.07-.47-.08-.7-.01-.38-.02-.76,0-1.15,0-.21.03-.43.05-.64.01-.12.02-.25.04-.37.04-.59.08-1.17.26-1.74.03-.1.04-.2.05-.31.1-.64.37-1.23.57-1.84.23-.72.6-1.38.98-2.02.52-.88,1.1-1.74,1.84-2.46.3-.3.62-.58.92-.88.71-.72,1.58-1.23,2.41-1.8.14-.1.31-.18.47-.25.62-.27,1.23-.55,1.85-.79.46-.18.94-.32,1.42-.45.31-.09.64-.11.94-.21.47-.14.94-.16,1.42-.16.41,0,.82-.05,1.23-.05.5,0,1,.07,1.5.07.42,0,.8.14,1.2.22.39.08.79.15,1.17.26.42.12.84.26,1.25.42.37.15.73.33,1.1.5.17.08.33.15.5.23.55.25,1.03.62,1.51.97.42.3.81.64,1.21.97.68.57,1.27,1.24,1.82,1.93.26.32.46.69.7,1.02.4.56.68,1.18.99,1.79.33.64.51,1.33.73,2.01.11.35.17.72.23,1.08.07.43.12.85.17,1.28.02.14.02.29.03.43.02.16.05.32.07.47Zm-16.36-8.2c-.07,0-.14,0-.22,0-.01,0-.02,0-.03.01-.15,0-.29.03-.44.03-.49-.02-.92.17-1.35.38-.38.19-.66.5-.97.78-.26.23-.44.49-.59.8-.25.5-.41,1.01-.29,1.59.05.22.12.42.27.59.45.48.99.72,1.64.62.62-.1.97-.54,1.19-1.09.04-.11.09-.21.2-.25.16-.06.32-.14.48-.14,1.25-.01,2.51,0,3.76,0,.27,0,.52.08.75.22.28.18.37.49.37.78,0,.43-.28.73-.63.95-.52.33-1.06.64-1.59.96-.44.26-.88.52-1.31.78-.52.32-.82.77-.84,1.4-.02.45-.02.9.1,1.35.09.33.25.59.5.82.38.34.82.46,1.31.39.59-.08,1.29-.74,1.31-1.3,0-.12.09-.29.19-.36.3-.2.62-.37.93-.55.49-.28,1.01-.52,1.45-.88.07-.06.16-.11.24-.16.23-.15.43-.32.59-.55.08-.12.17-.23.26-.34.34-.41.49-.92.66-1.41.05-.13.04-.28.06-.42.03-.17.08-.34.08-.5,0-.26-.02-.52-.06-.78-.06-.46-.19-.9-.39-1.31-.07-.14-.13-.3-.22-.42-.28-.39-.61-.72-.98-1.04-.34-.29-.74-.45-1.14-.62-.53-.22-1.09-.32-1.67-.31-.01,0-.03,0-.04,0-.05,0-.1,0-.16,0-.05,0-.11-.01-.16-.01-.65,0-1.3,0-1.95,0-.44,0-.89,0-1.33.01Zm2.04,13.25c-.09.01-.18.04-.27.04-.48-.01-.85.25-1.22.49-.05.03-.09.09-.14.13-.35.37-.43.85-.51,1.32-.05.3-.01.61.08.91.2.64.64,1.09,1.26,1.31.39.14.81.21,1.25.1.36-.09.68-.21.97-.43.32-.24.55-.56.67-.94.13-.41.18-.83.04-1.26-.03-.08-.06-.15-.08-.23-.06-.36-.23-.67-.5-.9-.44-.37-.95-.56-1.54-.55Z"/>
        <path class="cls-5" d="m32.34,19.34c.03-.19.05-.39.08-.58.11.04.1.14.08.21-.04.13-.1.24-.16.37Z"/>
        <path class="cls-2" d="m19.61,32.37c.15-.03.29-.05.44-.08-.12.11-.32.15-.44.08Z"/>
        <path class="cls-3" d="m32.42,17.52c-.02-.16-.05-.32-.07-.47.14.14.12.31.07.47Z"/>
        <path class="cls-6" d="m16.31,32.34c.14.01.28.02.41.03-.12.09-.31.08-.41-.03Z"/>
        <path class="cls-8" d="m3.88,16.83c-.01.12-.02.25-.04.37-.06-.13-.03-.25.04-.37Z"/>
        <path d="m19.5,9.33c.05,0,.1,0,.16,0,.01,0,.03,0,.04,0,.58,0,1.14.08,1.67.31.39.17.8.33,1.14.62.37.31.7.65.98,1.04.09.13.15.28.22.42.2.42.33.86.39,1.31.04.26.06.52.06.78,0,.17-.06.34-.08.5-.02.14-.02.29-.06.42-.17.49-.32.99-.66,1.41-.09.11-.18.22-.26.34-.16.23-.36.4-.59.55-.08.05-.16.1-.24.16-.44.36-.96.6-1.45.88-.31.18-.64.35-.93.55-.1.07-.19.24-.19.36-.02.56-.71,1.22-1.31,1.3-.49.07-.93-.05-1.31-.39-.25-.23-.41-.49-.5-.82-.12-.45-.12-.9-.1-1.35.03-.62.32-1.08.84-1.4.43-.27.87-.52,1.31-.78.53-.32,1.07-.63,1.59-.96.35-.22.64-.51.63-.95,0-.29-.09-.6-.37-.78-.23-.14-.48-.22-.75-.22-1.25,0-2.51,0-3.76,0-.16,0-.32.08-.48.14-.11.04-.15.14-.2.25-.23.55-.58.99-1.19,1.09-.65.1-1.2-.14-1.64-.62-.16-.17-.23-.37-.27-.59-.12-.57.04-1.08.29-1.59.15-.31.33-.57.59-.8.31-.27.59-.59.97-.78.42-.21.85-.4,1.35-.38.14,0,.29-.02.44-.03.01,0,.02,0,.03-.01.07,0,.14,0,.22,0,.05.13.17.09.25.09,1.02,0,2.03,0,3.05,0,.05,0,.09-.06.14-.09Z"/>
        <path d="m18.1,22.57c.58,0,1.1.18,1.54.55.27.23.44.54.5.9.01.08.05.15.08.23.14.42.09.85-.04,1.26-.12.37-.35.69-.67.94-.29.22-.61.34-.97.43-.44.11-.86.04-1.25-.1-.62-.22-1.05-.67-1.26-1.31-.09-.29-.13-.6-.08-.91.08-.47.16-.95.51-1.32.04-.05.08-.1.14-.13.37-.25.74-.51,1.22-.49.09,0,.18-.03.27-.04Z"/>
        <path class="cls-7" d="m19.5,9.33s-.09.09-.14.09c-1.02,0-2.03,0-3.05,0-.08,0-.21.04-.25-.09.44,0,.89,0,1.33-.01.65,0,1.3,0,1.95,0,.05,0,.11,0,.16.01Z"/>
        <path class="cls-4" d="m15.84,9.32s-.02,0-.03.01c.01,0,.02,0,.03-.01Z"/>
        <path class="cls-4" d="m19.7,9.33s-.03,0-.04,0c.01,0,.03,0,.04,0Z"/>
      </g>
    </g>
  </g>
</svg>