<?xml version="1.0" encoding="UTF-8"?>
<svg id="Layer_2" data-name="Layer 2" xmlns="http://www.w3.org/2000/svg" viewBox="0 0 46.41 35.44">
  <defs>
    <style>
      .cls-1 {
        fill: #010101;
      }

      .cls-2 {
        fill: #fff;
      }

      .cls-3 {
        fill: #2f2f2f;
      }

      .cls-4 {
        fill: none;
        stroke: #000;
        stroke-miterlimit: 10;
      }
    </style>
  </defs>
  <g id="Layer_1-2" data-name="Layer 1">
    <g id="TZ9duY.tif">
      <g>
        <path class="cls-2" d="m2.28,15.41c-.42,0-.77,0-1.13,0-.36,0-.6.24-.63.6-.01.16-.01.32-.01.48,0,4.03,0,8.05,0,12.08,0,.98,0,1.97,0,2.95,0,.61.29.86.89.88.96.04,1.92.06,2.87.17,1.08.12,2.15.29,3.22.47,1.98.34,3.88.94,5.73,1.72.38.16.74.25,1.16.1,1.23-.45,2.44-.94,3.7-1.28,1.44-.39,2.91-.7,4.38-.92,1.27-.18,2.56-.22,3.84-.24.74-.01,1.1-.48,1.1-1.11-.02-4.96-.01-9.91-.01-14.87,0-.08,0-.16,0-.24-.03-.53-.3-.79-.82-.79-.33,0-.65,0-1,0,0-.42,0-.8,0-1.19-.01-.53-.3-.82-.83-.81-.74.02-1.48.02-2.21.09-1.06.1-2.12.22-3.17.4-1.59.27-3.12.73-4.63,1.29-.33.12-.64.41-1.06.24-.67-.26-1.34-.52-2.02-.73-1.92-.61-3.9-1-5.9-1.2-.89-.09-1.79-.07-2.69-.09-.48-.01-.77.29-.77.77,0,.4,0,.79,0,1.22Zm34.22,1.4c.38-.25.76-.47,1.11-.72.47-.34.44-.84-.03-1.17-.18-.12-.35-.26-.54-.39-.9-.63-1.8-1.26-2.7-1.88-.57-.39-1.14-.81-1.75-1.14-.2-.11-.59-.07-.78.06-.16.11-.25.47-.22.69.17,1.11.4,2.21.61,3.31.16.86.31,1.73.49,2.58.11.53.56.72,1.01.44.38-.23.76-.48,1.15-.72.03.02.07.04.09.07.55.83,1.09,1.67,1.63,2.5.17.26.31.56.54.75.36.31.98.24,1.29-.08.32-.33.34-.88.05-1.34-.65-1-1.3-1.99-1.95-2.99Z"/>
        <g>
          <path d="m30.48,27.75v-2.16h4.98c2.26,0,4.53,0,6.79,0h0c.23,0,.51-.03.72-.24.22-.22.24-.51.24-.71,0-4.39,0-8.78,0-13.17v-3.54c0-.07-.04-.79-.04-.79H15.55v2.57c0,.61,0,1.23,0,1.84,0,.01,0,.03,0,.04-.36.09-.63.19-.88.29-.26.1-.5.19-.74.24,0,0,0,0-.01,0-.16,0-.34-.05-.47-.1,0-.04,0-.09,0-.15v-3.37c0-1.8,0-3.61-.01-5.41,0-.95.35-1.54,1.15-1.93.11-.05.22-.1.33-.14l.07-.03h28.79c.1.06.2.11.31.17.29.15.56.3.76.49.16.16.29.41.42.68.05.1.1.2.15.29v23.57c-.06.09-.11.19-.17.28-.17.29-.33.55-.53.77-.37.41-.85.5-1.19.5-2.41,0-4.81,0-7.22,0h-5.83ZM16.86,2.55c-.86,0-1.48.78-1.51,1.5-.02.37.16.79.48,1.12.29.3.63.47.97.47.05,0,.11,0,.16-.01h.05c.38,0,.76-.18,1.05-.5.29-.31.44-.71.42-1.09-.07-.92-.6-1.44-1.55-1.49h-.08Zm3.25,0c-.85,0-1.5.65-1.5,1.52,0,.43.16.83.45,1.12.28.28.65.43,1.05.43.9,0,1.57-.66,1.58-1.52,0-.87-.66-1.54-1.54-1.55h-.03Zm3.21,0c-.85,0-1.52.68-1.52,1.53,0,.42.16.81.45,1.1.29.29.67.44,1.08.44.43,0,.82-.16,1.11-.45.28-.28.44-.67.44-1.07,0-.88-.67-1.55-1.54-1.55h0Z"/>
          <path class="cls-2" d="m43.65,1.5c.07.04.13.07.2.11.26.14.5.27.64.4.1.1.21.32.32.54.03.06.06.13.1.19v23.31c-.03.05-.07.11-.1.16-.16.26-.31.51-.47.7-.24.27-.58.33-.81.33-2.24,0-4.49,0-6.73,0h-3.92s-1.9,0-1.9,0v-1.16h1.9s2.55,0,2.55,0c2.27,0,4.55,0,6.82,0,.17,0,.68,0,1.07-.39.39-.39.39-.89.39-1.06,0-4.33,0-8.67,0-13v-3.71c0-.08,0-.16-.01-.25v-.09s-.05-.95-.05-.95H15.05v3.07c0,.49,0,.98,0,1.5-.2.06-.38.13-.56.2-.21.08-.4.15-.55.19,0-1.05,0-2.1,0-3.15,0-1.79,0-3.58,0-5.37,0-.75.25-1.18.87-1.47.09-.04.18-.08.28-.12h28.57m-25.1,1.29c-.35-.44-.89-.69-1.58-.73-.04,0-.07,0-.11,0-1.15,0-1.97,1.02-2.01,1.98-.02.5.21,1.06.62,1.49.38.4.86.62,1.33.62.06,0,.12,0,.18-.01.01,0,.02,0,.04,0,.52,0,1.03-.24,1.42-.66.04-.04.07-.08.1-.12.05.07.11.13.17.19.37.37.87.58,1.4.58h0c.68,0,1.26-.29,1.64-.76.05.06.09.11.15.16.38.38.89.59,1.44.59h0c.56,0,1.08-.21,1.46-.6.38-.38.58-.89.58-1.43,0-1.17-.88-2.05-2.05-2.05-.65,0-1.21.29-1.58.76-.37-.46-.95-.75-1.63-.76-.65,0-1.2.28-1.57.74M43.91.5H14.88c-.17.07-.34.14-.51.22-1,.48-1.44,1.27-1.44,2.38.02,2.92,0,5.85.01,8.77,0,.18.02.49.12.53.25.11.55.23.82.23.05,0,.1,0,.15-.01.55-.11,1.06-.4,1.61-.52.37-.08.43-.22.42-.55-.02-.85,0-1.7,0-2.55v-1.35h26.64c0,.11.01.2.01.29,0,5.57,0,11.14,0,16.71,0,.36-.12.45-.46.45h0c-2.27,0-4.55,0-6.82,0-1.66,0-3.32,0-4.98,0h-.47v3.08l.06.07s.05.01.08.01c2.23,0,4.45,0,6.68,0s4.49,0,6.73,0c.6,0,1.16-.22,1.56-.67.33-.37.55-.82.82-1.24V2.49c-.23-.41-.4-.88-.72-1.2-.35-.34-.85-.54-1.28-.8h0Zm-23.81,4.63c-.57,0-1-.46-1-1.05,0-.6.42-1.02,1-1.02,0,0,.01,0,.02,0,.62,0,1.06.45,1.05,1.05,0,.59-.46,1.03-1.08,1.03h0Zm3.22,0c-.58,0-1.03-.45-1.03-1.04,0-.58.45-1.03,1.03-1.03h0c.61,0,1.04.44,1.04,1.05,0,.58-.45,1.02-1.04,1.03h0Zm-6.53.01c-.47,0-.97-.63-.95-1.06.02-.47.43-1.03,1.01-1.03.02,0,.03,0,.05,0,.77.04,1.03.44,1.08,1.03.04.51-.48,1.05-.97,1.05-.03,0-.06,0-.09,0-.04.01-.08.02-.13.02h0Z"/>
        </g>
        <path class="cls-4" d="m2.28,15.41c0-.43,0-.82,0-1.22,0-.48.3-.78.77-.77.9.02,1.8,0,2.69.09,2,.2,3.98.59,5.9,1.2.68.22,1.35.47,2.02.73.42.16.72-.12,1.06-.24,1.51-.56,3.04-1.02,4.63-1.29,1.05-.18,2.11-.3,3.17-.4.73-.07,1.47-.07,2.21-.09.53-.01.82.27.83.81,0,.38,0,.77,0,1.19.35,0,.67,0,1,0,.52,0,.79.26.82.79,0,.08,0,.16,0,.24,0,4.96,0,9.91.01,14.87,0,.62-.36,1.09-1.1,1.11-1.28.02-2.58.06-3.84.24-1.48.21-2.94.53-4.38.92-1.26.34-2.47.84-3.7,1.28-.42.15-.78.06-1.16-.1-1.85-.78-3.75-1.38-5.73-1.72-1.07-.18-2.14-.36-3.22-.47-.95-.1-1.92-.13-2.87-.17-.6-.02-.89-.28-.89-.88,0-.98,0-1.97,0-2.95,0-4.03,0-8.05,0-12.08,0-.16,0-.32.01-.48.03-.36.27-.59.63-.6.36,0,.72,0,1.13,0Zm21.74,14.18v-14.7c-.5.04-.97.07-1.44.12-.88.1-1.76.19-2.63.32-1.7.26-3.32.76-4.92,1.38-.31.12-.32.27-.32.52,0,4.57,0,9.14,0,13.71v.51c3.01-1.17,6.1-1.72,9.31-1.86Zm-10.85,1.87v-14.58c-2.99-1.2-6.09-1.85-9.3-1.96v14.67c3.19.14,6.28.73,9.3,1.86Z"/>
        <path class="cls-1" d="m36.5,16.81c.65,1,1.3,1.99,1.95,2.99.29.45.27,1.01-.05,1.34-.31.31-.93.38-1.29.08-.23-.19-.37-.49-.54-.75-.55-.83-1.09-1.67-1.63-2.5-.02-.03-.06-.05-.09-.07-.38.24-.76.48-1.15.72-.46.28-.91.08-1.01-.44-.17-.86-.32-1.72-.49-2.58-.21-1.1-.43-2.2-.61-3.31-.03-.22.06-.58.22-.69.2-.13.58-.17.78-.06.61.33,1.17.75,1.75,1.14.9.62,1.8,1.25,2.7,1.88.18.13.35.26.54.39.48.32.5.83.03,1.17-.35.25-.73.48-1.11.72Z"/>
        <path class="cls-3" d="m29.98,28.17s.04.05.06.07c-.02-.02-.04-.05-.06-.07Z"/>
        <g>
          <path d="m15.21,17.19c1.84-.71,3.35-1.14,4.82-1.36.73-.11,1.47-.19,2.21-.27l.4-.04c.29-.03.58-.05.88-.08v13.68c-3.03.17-5.76.7-8.31,1.62,0,0,0-13.53,0-13.54Zm6.12,8.37c-.21.03-.48.06-.74.11l-.49.08c-.61.1-1.21.21-1.81.35-.73.17-1.38.36-1.97.58-.55.21-.85.79-.7,1.4.14.58.55.93,1.07.93.08,0,.16,0,.25-.03.24-.05.49-.11.73-.17.28-.07.56-.14.84-.19,1.12-.21,2.25-.41,3.38-.58.59-.09,1.23-.57,1.24-1.18,0-.48-.18-.78-.34-.94-.26-.27-.64-.4-1.14-.4h0l-.31.04Zm-.68-2.82c-.68.12-1.37.23-2.05.38-.68.14-1.34.33-2.01.52-.35.1-.64.33-.8.64-.17.32-.21.69-.1,1.04.15.48.55.77,1.07.77h0c.14,0,.29-.02.44-.06l.32-.08.83-.18c.71-.16,1.43-.31,2.15-.46.28-.06.56-.09.84-.13.25-.03.5-.07.75-.11.35-.06.64-.24.81-.51.17-.27.22-.61.13-.95-.22-.85-.52-.95-1.38-1.03h-.07s-.93.16-.93.16Zm.25-2.96c-.4.07-.9.15-1.39.26-1.01.22-2.01.47-3.01.73-.59.15-1.06.9-.92,1.48.13.53.65.94,1.22.94h.16c.35-.06.68-.15.9-.21,1.29-.38,2.65-.63,4.04-.75.35-.03.67-.21.88-.5.21-.29.3-.65.22-.99-.21-.95-.78-1.02-1.63-1.02h-.04l-.44.08Zm.74-3.07l-.69.09c-.51.07-1.03.13-1.53.24-.63.13-1.25.29-1.87.44-.32.08-.63.16-.95.24-.67.16-1.14.85-1.01,1.48.13.61.65,1.04,1.26,1.04h0c.11,0,.22-.01.33-.04.18-.05.35-.1.53-.15.2-.06.4-.12.6-.17.58-.14,1.16-.27,1.75-.38.34-.06.69-.11,1.03-.17.33-.05.66-.1.99-.16.45-.08.69-.31.81-.49.12-.19.25-.51.14-.98-.15-.66-.57-.99-1.25-.99h-.13Z"/>
          <path class="cls-2" d="m23.02,15.98v.67c-.39-.37-.9-.45-1.24-.45-.05,0-.1,0-.16,0h-.04s-.04,0-.04,0c-.22.03-.43.06-.65.09-.51.07-1.03.13-1.56.24-.64.13-1.27.29-1.88.45-.25.06-.5.13-.75.19,1.23-.42,2.34-.69,3.42-.86.72-.11,1.46-.19,2.18-.27l.4-.04c.11-.01.22-.02.33-.03m-7.02,1.44c-.1.06-.2.13-.29.21,0-.03,0-.06,0-.1.1-.04.19-.07.29-.11m7.02,1.86v.36c-.08-.07-.16-.13-.25-.18.1-.05.18-.11.25-.17m-7.31,1.04c.07.06.14.11.21.15-.07.05-.15.1-.21.16,0-.11,0-.21,0-.32m7.31,1.9v.3c-.06-.05-.12-.1-.19-.14.06-.05.13-.1.19-.16m-7.31,1.06c.06.05.12.09.19.13-.07.05-.13.1-.19.15,0-.09,0-.19,0-.28m7.31,1.89v.29c-.06-.05-.13-.1-.2-.14.07-.04.13-.09.2-.14m-7.31,1.05s.1.08.15.11c-.05.03-.1.07-.15.1v-.22m7.31,1.81v.61c-2.63.18-5.04.64-7.31,1.38v-.87c.27.22.6.34.97.34.12,0,.23-.01.35-.04.25-.05.5-.11.75-.17.27-.07.54-.13.81-.18,1.29-.24,2.36-.43,3.36-.58.38-.06.76-.23,1.07-.49m1-13.14c-.5.04-.97.07-1.44.12-.88.1-1.76.19-2.63.32-1.7.26-3.32.76-4.92,1.38-.31.12-.32.27-.32.52,0,4.57,0,9.14,0,13.71v.51c3.01-1.17,6.1-1.72,9.31-1.86v-14.7h0Zm-7.17,4.84c-.37,0-.69-.26-.77-.64-.08-.37.23-.79.63-.89.94-.22,1.86-.48,2.81-.68.71-.15,1.43-.22,2.15-.32.04,0,.07,0,.1,0,.52,0,.68.25.76.6.11.47-.08.79-.55.87-.67.12-1.35.2-2.02.32-.59.11-1.19.24-1.77.38-.38.09-.76.23-1.14.32-.07.02-.14.03-.21.03h0Zm-.03,2.93c-.35,0-.66-.24-.74-.55-.07-.3.21-.79.56-.88.99-.25,1.99-.5,2.99-.72.67-.15,1.35-.25,1.77-.32.89,0,1.03.1,1.15.63.09.41-.23.85-.66.89-1.41.12-2.79.37-4.14.77-.27.08-.55.15-.83.19-.03,0-.06,0-.1,0h0Zm-.05,2.92c-.31,0-.51-.14-.6-.42-.14-.46.09-.92.57-1.06.65-.19,1.31-.38,1.97-.51.96-.2,1.93-.35,2.9-.52.75.07.8.1.94.66.11.43-.09.76-.54.84-.53.1-1.07.14-1.61.25-1,.2-1.99.42-2.98.64-.11.02-.22.06-.34.08-.12.03-.22.04-.32.04h0Zm-.09,2.91c-.33,0-.51-.25-.58-.55-.08-.34.07-.69.39-.81.62-.23,1.26-.41,1.91-.56.75-.17,1.52-.29,2.28-.43.36-.06.72-.11.95-.14h0c.68,0,.99.31.98.83,0,.31-.44.63-.82.69-1.13.18-2.26.38-3.39.59-.53.1-1.05.25-1.58.36-.05.01-.1.02-.15.02h0Z"/>
        </g>
        <g>
          <path d="m12.67,30.75c-2.66-.92-5.38-1.46-8.3-1.62v-13.68c2.85.15,5.64.75,8.3,1.77v13.53Zm-6.77-5.25c-.49,0-.88.23-1.06.64-.13.28-.28.92.03,1.3.3.37.79.58,1.15.65.65.14,1.31.25,1.97.37.4.07.8.14,1.19.21.37.07.74.16,1.06.23l.43.1h.05c.95,0,1.38-.5,1.46-.96.11-.64-.27-1.24-.93-1.45-.21-.07-.43-.13-.65-.18l-.24-.05c-1.37-.28-2.74-.56-4.11-.82-.12-.02-.24-.04-.35-.04Zm.28-2.93c-.91,0-1.4.36-1.45,1.06-.06.78.38,1.34,1.11,1.45l.43.06c.43.06.87.12,1.3.2.59.12,1.17.26,1.75.4.41.1.82.19,1.24.29.1.02.2.03.3.03.61,0,1.17-.4,1.31-.92.18-.68-.22-1.29-.99-1.51l-.24-.07c-.69-.2-1.41-.4-2.13-.55-.65-.14-1.31-.24-1.89-.33l-.64-.1h-.09Zm-.29-2.99c-.62.04-1.12.47-1.24,1.08-.12.6.29,1.27.88,1.44.21.06.44.09.66.13.12.02.25.04.37.06,1.36.28,2.72.56,4.07.85.08.02.17.03.25.03.58,0,1.12-.38,1.27-.88.18-.63-.2-1.33-.81-1.52l-.23-.07c-.56-.17-1.14-.34-1.73-.46-.79-.17-1.58-.31-2.37-.45l-1.06-.19h-.06Zm.14-2.89c-.92,0-1.19.54-1.28.87-.2.76.15,1.41.89,1.65.14.05.29.07.44.1l3.87.73c.07.01.14.02.2.03.08,0,.17.02.21.04.18.08.37.13.56.13h0c.57,0,1.09-.4,1.24-.95.08-.3.03-.61-.13-.88-.2-.33-.55-.58-.99-.68-.21-.05-.43-.11-.64-.16-.4-.11-.8-.21-1.21-.29-.71-.14-1.43-.27-2.14-.4l-.96-.17h-.06Z"/>
          <path class="cls-2" d="m4.88,15.99c2.21.16,4.38.59,6.47,1.29-.06-.02-.11-.03-.17-.05-.21-.05-.42-.11-.63-.16-.4-.11-.81-.22-1.24-.3-.72-.15-1.45-.27-2.17-.4l-.9-.16-.11-.02h-.09c-.53,0-.9.14-1.17.34v-.54m6.52,1.31c.26.09.52.18.77.27v.19c-.21-.2-.47-.36-.77-.47m-6.52,2.06s.04.03.06.04c-.02.01-.04.03-.06.04v-.08m7.3.87v.45c-.09-.08-.18-.16-.29-.23.1-.07.2-.14.29-.23m-7.3,2.08s.05.04.07.05c-.03.02-.05.03-.07.05v-.1m7.3.85v.46c-.09-.08-.19-.16-.3-.23.11-.07.21-.14.3-.23m-7.3,2.04s.05.04.08.06c-.03.02-.06.04-.08.06v-.12m7.3.85v.5c-.1-.1-.21-.18-.34-.26.12-.07.23-.15.34-.25m-7.3,2.06c.3.22.66.38,1.05.46.67.14,1.34.26,1.99.37.4.07.79.14,1.19.21.36.07.72.15,1.03.22l.39.09.1.02h.11s.01,0,.01,0h0c.65,0,1.11-.2,1.42-.47v1.04c-2.35-.76-4.76-1.22-7.3-1.4v-.55m-1-13.18v14.67c3.19.14,6.28.73,9.3,1.86v-14.58c-2.99-1.2-6.09-1.85-9.3-1.96h0Zm7.06,4.8c-.11,0-.23-.02-.35-.08-.16-.07-.35-.07-.53-.11-1.24-.23-2.48-.47-3.72-.71-.18-.03-.36-.05-.53-.1-.47-.15-.7-.54-.56-1.05.1-.39.41-.5.79-.5,0,0,.01,0,.02,0,1.02.18,2.04.35,3.05.56.61.12,1.22.3,1.83.45.53.13.86.53.75.95-.08.3-.38.58-.75.58h0Zm-.04,2.92c-.05,0-.1,0-.15-.02-1.36-.29-2.72-.57-4.07-.85-.33-.07-.67-.09-.99-.18-.35-.1-.59-.53-.52-.86.08-.39.39-.65.78-.67,1.12.21,2.24.4,3.35.63.65.14,1.29.33,1.92.52.37.11.58.54.48.9-.09.31-.45.52-.79.52h0Zm-.03,2.9c-.06,0-.13,0-.19-.02-1-.22-1.99-.47-3-.68-.58-.12-1.17-.19-1.76-.27-.47-.07-.72-.39-.68-.92.03-.41.27-.6.95-.6h0c.7.12,1.61.24,2.51.42.79.16,1.56.39,2.34.61.51.15.75.5.65.9-.08.31-.44.55-.82.55h0Zm-.12,2.94s0,0-.01,0c-.4-.09-.92-.22-1.45-.32-1.05-.2-2.11-.35-3.16-.57-.32-.07-.67-.24-.86-.48-.13-.15-.07-.55.04-.78.11-.26.35-.34.6-.34.09,0,.17.01.26.03,1.45.28,2.9.57,4.35.87.2.04.4.1.59.17.43.14.66.49.59.89-.06.32-.39.54-.95.54h0Z"/>
        </g>
        <path class="cls-1" d="m21.68,17.21c.61-.03.78.22.87.6.11.47-.08.79-.55.87-.67.12-1.35.2-2.02.32-.59.11-1.19.24-1.77.38-.38.09-.76.23-1.14.32-.45.12-.88-.16-.98-.62-.08-.37.23-.79.63-.89.94-.22,1.86-.48,2.81-.68.71-.15,1.43-.22,2.15-.32Z"/>
        <path class="cls-1" d="m21.63,26.02c.68,0,1,.31.99.83,0,.31-.44.63-.82.69-1.13.18-2.26.38-3.39.59-.53.1-1.05.25-1.58.36-.42.09-.65-.19-.73-.53-.08-.34.07-.69.39-.81.62-.23,1.26-.41,1.91-.56.75-.17,1.52-.29,2.28-.43.36-.06.72-.11.95-.14Z"/>
        <path class="cls-1" d="m21.4,20.2c.89,0,1.03.1,1.15.63.09.41-.23.85-.66.89-1.41.12-2.79.37-4.14.77-.27.08-.55.15-.83.19-.38.05-.75-.21-.83-.55-.07-.3.21-.79.56-.88.99-.25,1.99-.5,2.99-.72.67-.15,1.35-.25,1.77-.32Z"/>
        <path class="cls-1" d="m21.6,23.08c.75.07.8.1.94.66.11.43-.09.76-.54.84-.53.1-1.07.14-1.61.25-1,.2-1.99.42-2.98.64-.11.02-.22.06-.34.08-.48.12-.81-.01-.92-.38-.14-.46.09-.92.57-1.06.65-.19,1.31-.38,1.97-.51.96-.2,1.93-.35,2.9-.52Z"/>
        <path class="cls-1" d="m5.93,20.08c1.12.21,2.24.4,3.35.63.65.14,1.29.33,1.92.52.37.11.58.54.48.9-.1.35-.57.59-.94.51-1.36-.29-2.72-.57-4.07-.85-.33-.07-.67-.09-.99-.18-.35-.1-.59-.53-.52-.86.08-.39.39-.65.78-.67Z"/>
        <path class="cls-1" d="m10.74,28.49c-.4-.09-.92-.22-1.45-.32-1.05-.2-2.11-.35-3.16-.57-.32-.07-.67-.24-.86-.48-.13-.15-.07-.55.04-.78.15-.34.53-.38.86-.31,1.45.28,2.9.57,4.35.87.2.04.4.1.59.17.43.14.66.49.59.89-.06.33-.39.55-.96.54Z"/>
        <path class="cls-1" d="m6.06,17.19c1.02.18,2.04.35,3.05.56.61.12,1.22.3,1.83.45.53.13.86.53.75.95-.1.39-.58.74-1.1.5-.16-.07-.35-.07-.53-.11-1.24-.23-2.48-.47-3.72-.71-.18-.03-.36-.05-.53-.1-.47-.15-.7-.54-.56-1.05.1-.39.42-.5.81-.5Z"/>
        <path class="cls-1" d="m6.2,23.07c.7.12,1.61.24,2.51.42.79.16,1.56.39,2.34.61.51.15.75.5.65.9-.09.36-.57.62-1.02.53-1-.22-1.99-.47-3-.68-.58-.12-1.17-.19-1.76-.27-.47-.07-.72-.39-.68-.92.03-.41.27-.6.96-.6Z"/>
      </g>
    </g>
  </g>
</svg>