<?xml version="1.0" encoding="UTF-8"?>
<svg id="Layer_2" data-name="Layer 2" xmlns="http://www.w3.org/2000/svg" viewBox="0 0 46.08 57.52">
  <defs>
    <style>
      .cls-1 {
        fill: #f2f1f2;
      }

      .cls-2 {
        fill: blue;
      }

      .cls-3 {
        fill: #fff;
      }

      .cls-4 {
        fill: #fefeff;
      }

      .cls-5 {
        fill: #e4e5e4;
      }

      .cls-6 {
        fill: #686867;
      }

      .cls-7 {
        fill: #c2c2c3;
      }

      .cls-8 {
        fill: #c2c2c2;
      }

      .cls-9 {
        fill: #d8d8d7;
      }

      .cls-10 {
        fill: #a8d1dc;
      }

      .cls-11 {
        fill: #df8b76;
      }

      .cls-12 {
        fill: #c3c2c3;
      }

      .cls-13 {
        fill: #727272;
      }

      .cls-14 {
        fill: #5c5b5c;
      }

      .cls-15 {
        fill: #4e4e4e;
      }
    </style>
  </defs>
  <g id="Layer_1-2" data-name="Layer 1">
    <g>
      <g id="FjRYDs">
        <g>
          <path class="cls-4" d="m45.44.03c-.09,0-.18-.02-.27-.02C40.84,0,36.5,0,32.16,0c-.5,0-1.01,0-1.51.01-.2,0-.4-.01-.6-.01-4.56.02-9.11.04-13.67.06-.31,0-.62-.03-.93-.05-.03,0-.07-.01-.1-.01C10.41,0,5.46,0,.51,0c-.05,0-.1.02-.15.03v57.48c.19,0,.35,0,.52,0,.73,0,1.46,0,2.18,0,14.12,0,28.24,0,42.37,0,.25,0,.34-.08.34-.32,0-.28,0-.56,0-.84,0-12.76,0-25.51,0-38.27,0-2.25-.04-4.5-.06-6.74,0-.09,0-.18,0-.27.02-.1.05-.19.05-.29,0-3.5,0-7.01.01-10.51,0-.26-.1-.32-.32-.26Z"/>
          <path class="cls-13" d="m.88,57.51H.36V.03S.46,0,.51,0C5.46,0,10.41,0,15.36,0c.03,0,.07,0,.1.01,0,1.53-.01,3.07.01,4.6,0,.36-.13.51-.44.63-1.55.6-3.09,1.22-4.63,1.83-.14-.01-.29-.04-.43-.04-2.42,0-4.84,0-7.26,0-.28,0-.35.08-.35.36,0,4.55-.03,9.1-.04,13.65-.01,6.7-.01,13.39-.02,20.09,0,4.33,0,8.67,0,13,0,.44,0,.87.01,1.31.04.05.08.1.12.15.02.27.22.26.42.26,13.51,0,27.02,0,40.52,0,.16,0,.31-.12.47-.18-.03-.05-.06-.1-.09-.15,0-.09.02-.18.02-.27,0-12.66,0-25.32,0-37.98,0-2.01,0-4.03.01-6.04.45-.04.91-.08,1.36-.13.22-.02.36.06.43.27-.04.29-.13.58-.13.88,0,14.82,0,29.64,0,44.45,0,.57.06.5-.5.5-14.47,0-28.94,0-43.41,0-.1,0-.2,0-.3,0-.22,0-.34.09-.34.32Z"/>
          <g>
            <path class="cls-3" d="m11.38,10.65c-.15,0-.3-.01-.45-.03v-2.8l.07-.06-.08-.34.84-.33c1.15-.46,2.29-.91,3.45-1.36.33-.13.77-.38.76-1.1-.02-1.12-.02-2.25-.01-3.37v-.69c.14,0,.28.01.42.01l13.78-.06v.59c0,1.23,0,2.46-.01,3.69,0,.4.19.68.58.83,1.01.38,2.01.78,3.01,1.17.43.17.86.35,1.29.53l.2.08c-.02.23-.03.47-.03.7,0,.82,0,1.64,0,2.46,0,.03,0,.06,0,.08h-10.44s-13.37,0-13.37,0Z"/>
            <path d="m29.65,1v.13c0,1.21,0,2.43-.01,3.64,0,.36.11,1,.91,1.3,1,.38,2.01.77,3,1.17.39.15.77.31,1.15.47,0,.12-.01.25-.01.37,0,.68,0,1.37,0,2.05h-1.42s-8.83,0-8.83,0c-4.34,0-8.68,0-13.01,0v-2.08l.16-.13-.06-.24.45-.18c1.14-.45,2.27-.9,3.41-1.35.91-.35,1.09-1.05,1.08-1.58-.02-1.12-.02-2.23-.01-3.35v-.18c3.12-.01,6.24-.03,9.36-.04l3.84-.02M30.08,0s-.02,0-.03,0c-4.56.02-9.11.04-13.67.06,0,0-.01,0-.02,0-.3,0-.61-.03-.91-.05,0,1.53-.01,3.07.01,4.6,0,.36-.13.51-.44.63-1.55.6-3.09,1.22-4.63,1.83,0,.15.02.3.03.45,0,.02.02.03.02.05,0,0-.01.01-.02.02v3.47c.33.03.64.08.95.08,4.35,0,8.71,0,13.06,0,3.72,0,7.43,0,11.15,0,.03,0,.07,0,.1,0,.02-.02.04-.04.06-.06-.02-.18-.06-.35-.06-.53,0-.82,0-1.63,0-2.45,0-.34.04-.69.06-1.03-.61-.25-1.21-.51-1.83-.75-1-.4-2.01-.79-3.02-1.18-.18-.07-.26-.15-.26-.36.01-1.59,0-3.18.01-4.77-.19,0-.38-.01-.57-.01h0Z"/>
          </g>
          <path class="cls-14" d="m35.75,7.07c-.61-.25-1.21-.51-1.83-.75-1-.4-2.01-.79-3.02-1.18-.18-.07-.26-.15-.26-.36.01-1.59,0-3.18.01-4.77C31.16,0,31.66,0,32.16,0c4.34,0,8.67,0,13.01,0,.09,0,.18.01.27.02,0,.25,0,.49,0,.74,0,3.29,0,6.57,0,9.86,0,.21-.02.42.26.47,0,.09,0,.18,0,.27-.04,0-.08,0-.12,0-.07-.21-.2-.3-.43-.27-.45.05-.91.09-1.36.13,0-.02-.02-.04-.02-.07,0-.02,0-.04,0-.06,0-1.23,0-2.46.01-3.69,0-.3-.11-.35-.38-.35-2.18,0-4.36,0-6.54,0-.37,0-.74.01-1.1.02Z"/>
          <path class="cls-6" d="m45.57,11.36s.08,0,.12,0c.02,2.25.06,4.5.06,6.74,0,12.76,0,25.51,0,38.27,0,.28,0,.56,0,.84,0,.23-.08.32-.34.32-14.12,0-28.24,0-42.37,0-.73,0-1.46,0-2.18,0,0-.23.12-.32.34-.32.1,0,.2,0,.3,0,14.47,0,28.94,0,43.41,0,.56,0,.5.06.5-.5,0-14.82,0-29.64,0-44.45,0-.29.08-.58.13-.88Z"/>
          <path class="cls-15" d="m45.69,11.09c-.28-.05-.26-.26-.26-.47,0-3.29,0-6.57,0-9.86,0-.25,0-.49,0-.74.22-.06.32,0,.32.26,0,3.5,0,7.01-.01,10.51,0,.1-.03.19-.05.29Z"/>
          <path class="cls-1" d="m43.76,11.15s.02.04.02.07c0,2.01-.01,4.03-.01,6.04,0,12.66,0,25.32,0,37.98,0,.09-.01.18-.02.27-.12.02-.23.07-.35.07-.46,0-.91-.02-1.37-.02-12.58,0-25.15,0-37.73,0-.6,0-1.2,0-1.81.01-.06-.04-.13-.08-.19-.13,0-.44-.01-.87-.01-1.31,0-4.33,0-8.67,0-13,0-6.7,0-13.39.02-20.09,0-4.55.03-9.1.04-13.65,0-.28.07-.36.35-.36,2.42,0,4.84,0,7.26,0,.14,0,.29.02.43.04,0,.15.02.3.03.45,0,.02,0,.05,0,.07v3.47c.33.03.64.08.95.08,8.07,0,16.14,0,24.21,0,.03,0,.07,0,.1,0,.02,0,.05,0,.07,0,.4-.02.8-.05,1.2-.05,1.95,0,3.9,0,5.84,0,.3,0,.59,0,.89,0,.02.02.04.04.06.07ZM10.42,24.26c.02-.12.06-.23.06-.35,0-.82,0-1.64,0-2.46,0-.08-.12-.15-.19-.23-.02,0-.04,0-.06,0-.82,0-1.63,0-2.45.03-.13,0-.25.08-.38.13,0,0-.02.01-.02.02,0,.02.01.03.02.05,0,.83,0,1.66,0,2.49-.02.03-.03.05-.05.08,0,.16-.03.3.23.3.93,0,1.86.02,2.79.03.02-.02.05-.04.07-.07Zm-3.03-5.02s.05.03.08.04c.88,0,1.77,0,2.65,0,.27,0,.38-.08.37-.37-.02-.69,0-1.39-.01-2.08,0-.21-.04-.43-.07-.63h-3.03c0,.29,0,.56,0,.83,0,.73,0,1.47.01,2.2Zm23.73-2.02c-.29,0-.58,0-.87,0-1.41,0-2.83,0-4.24,0-.33,0-.67,0-1,0-.72,0-1.44,0-2.15,0h-1.27c-.13,0-.27,0-.4,0-2.48,0-4.97,0-7.45,0-.35,0-.69-.01-1.04,0-.09,0-.22.12-.23.19-.05.35-.08.71-.07,1.06,0,.86-.15.76.77.76,7.86,0,15.71,0,23.57.01.57,0,1.14.04,1.71.04.1,0,.28-.11.28-.18.02-.62.01-1.24.01-1.88h-2.55c-.27,0-.53,0-.8,0-1.41,0-2.83,0-4.24,0Zm7.58,20.15c-.44,0-.85,0-1.27,0-8.18,0-16.37,0-24.55,0-.41,0-.43.03-.44.44,0,.39,0,.78,0,1.18q0,.47.46.47c8.48,0,16.95,0,25.43,0,.12,0,.24-.01.37-.02v-2.07Zm.02,5.04c-.19,0-.33,0-.48,0-8.44,0-16.88,0-25.32,0-.04,0-.09,0-.13,0-.25-.03-.36.05-.35.33.02.45.03.9,0,1.34-.02.29.12.37.35.4.09,0,.18,0,.27,0,8.35,0,16.7,0,25.06,0,.14,0,.29,0,.43-.06.08-.03.17-.14.17-.22.01-.58,0-1.16,0-1.8Zm-.01-20.14H12.43c0,.61,0,1.21,0,1.8,0,.07.11.16.19.19.09.03.2.01.3.01,8.36,0,16.73,0,25.09,0,.22,0,.44,0,.68,0v-2Zm-26.27,12.07h.42c8.29,0,16.57,0,24.86,0,.22,0,.45-.02.67,0,.28.03.34-.09.33-.34-.02-.41,0-.83,0-1.24q0-.44-.43-.44c-8.41,0-16.82,0-25.23,0-.12,0-.26-.03-.37.01-.1.04-.24.16-.24.25-.02.57-.01,1.14-.01,1.76Zm13.1-5.04c3.75,0,7.5,0,11.25,0,.54,0,1.08-.01,1.61,0,.26,0,.33-.08.32-.33-.02-.44-.02-.87,0-1.31.02-.32-.1-.4-.41-.4-8.44,0-16.88,0-25.32,0-.07,0-.13,0-.2,0-.25-.02-.37.07-.36.34.02.42.03.85,0,1.28-.02.33.09.41.41.41,4.23-.01,8.46,0,12.7,0Zm13.18,18.21c-.24-.03-.44-.07-.64-.07-8.34,0-16.69,0-25.03,0-.11,0-.22,0-.34.01-.19.02-.29.1-.28.33.02.4,0,.81,0,1.21q0,.47.47.47c8.48,0,16.95,0,25.43,0,.06,0,.13.02.17,0,.08-.05.2-.12.2-.19.02-.57,0-1.14,0-1.76Zm-28.23-8.07c0-1,0-1.96,0-2.92,0-.06-.14-.16-.22-.16-.86-.01-1.72,0-2.59,0-.18,0-.27.06-.27.25,0,.86,0,1.72.01,2.59,0,.09.15.24.23.24.93.02,1.86.01,2.85.01Zm0,3.53h0c0-.41-.01-.83,0-1.24,0-.27-.1-.35-.36-.34-.79.01-1.59.02-2.38,0-.29,0-.36.11-.36.38.01.77.02,1.54,0,2.31,0,.3.12.4.38.4.83,0,1.65,0,2.48,0,.18,0,.24-.07.23-.24,0-.42,0-.85,0-1.27Zm0,3.47c-.95,0-1.85,0-2.75,0-.27,0-.34.1-.34.36.01.78.01,1.56,0,2.35,0,.24.05.33.31.33.86,0,1.72.03,2.57.03.07,0,.2-.15.2-.23.01-.93,0-1.85,0-2.83Zm0-20.17c-1,0-1.95,0-2.9.01-.07,0-.18.17-.18.26-.02.83,0,1.66-.02,2.48,0,.18.05.27.24.27.86,0,1.72,0,2.59,0,.18,0,.27-.07.27-.26,0-.91,0-1.81,0-2.77Zm-.01,5.13c-.16-.03-.29-.08-.42-.08-.81,0-1.61,0-2.42-.01-.21,0-.24.1-.24.27,0,.85,0,1.7,0,2.55,0,.06.03.12.04.18h3.04v-2.9Z"/>
          <path class="cls-6" d="m2.49,55.57c.6,0,1.2-.01,1.81-.01,12.58,0,25.15,0,37.73,0,.46,0,.91.02,1.37.02.12,0,.23-.04.35-.07.03.05.06.1.09.15-.16.06-.31.18-.47.18-13.51,0-27.02,0-40.52,0-.2,0-.39.01-.42-.26.02,0,.04-.01.07-.02Z"/>
          <path class="cls-5" d="m2.49,55.57s-.04.01-.07.02c-.04-.05-.08-.1-.12-.15.06.04.13.08.19.13Z"/>
          <path class="cls-7" d="m43.69,11.09c-.3,0-.59,0-.89,0-1.95,0-3.9,0-5.84,0-.4,0-.8.04-1.2.05,0-.02,0-.04,0-.06-.02-.18-.06-.35-.06-.53,0-.82,0-1.63,0-2.45,0-.34.04-.69.06-1.03.37,0,.74-.02,1.1-.02,2.18,0,4.36,0,6.54,0,.26,0,.38.06.38.35-.02,1.23-.01,2.46-.01,3.69-.02,0-.04,0-.06,0Z"/>
          <path class="cls-10" d="m35.75,11.08s0,.04,0,.06c-.02,0-.05,0-.07,0,.02-.02.04-.04.06-.06Z"/>
          <path class="cls-10" d="m10.43,7.6s0-.05,0-.07c0,.02.02.03.02.05,0,0-.01.01-.02.02Z"/>
          <path class="cls-13" d="m43.69,11.09s.04,0,.06,0c0,.02,0,.04,0,.06-.02-.02-.04-.04-.06-.07Z"/>
          <g>
            <rect class="cls-3" x="12.94" y="37.87" width="25.26" height="1.08"/>
            <path d="m37.7,38.36v.08h-16.49s-7.76,0-7.76,0v-.08s19.99,0,19.99,0h4s.27,0,.27,0m1-1h-1.27c-8.18,0-16.37,0-24.55,0-.41,0-.43.03-.44.44,0,.39,0,.78,0,1.18q0,.47.46.47c2.77,0,5.54,0,8.3,0,5.71,0,11.41,0,17.12,0,.12,0,.24-.01.37-.02v-2.07h0Z"/>
          </g>
          <g>
            <path class="cls-3" d="m12.94,43.98c.02-.34.02-.7,0-1.08h25.27c0,.37,0,.72,0,1.07-.03,0-25.22,0-25.23,0h-.05Z"/>
            <path d="m37.72,43.41s0,.05,0,.08c-5.98,0-11.95,0-17.93,0h-6.33s0-.05,0-.08h24.26m-25.03-1.01c-.18,0-.26.1-.25.34.02.45.03.9,0,1.34-.02.29.12.37.35.4.08,0,.15,0,.23,0h.04c2.25,0,4.49,0,6.74,0,6.11,0,12.21,0,18.32,0,.14,0,.29,0,.43-.06.08-.03.17-.14.17-.22.01-.58,0-1.16,0-1.8h-.48c-8.44,0-16.88,0-25.32,0-.03,0-.06,0-.09,0-.02,0-.03,0-.05,0-.04,0-.07,0-.1,0h0Z"/>
          </g>
          <path class="cls-12" d="m38.7,22.27v2c-.23,0-.46,0-.68,0-8.36,0-16.73,0-25.09,0-.1,0-.21.02-.3-.01-.08-.03-.19-.12-.19-.19-.02-.59,0-1.18,0-1.8h26.27Z"/>
          <g>
            <path class="cls-3" d="m12.94,33.84c0-.35,0-.69,0-1.03h.11s25.16.01,25.16.01v.29c0,.24,0,.48,0,.72-.03,0-.5,0-.5,0H12.94Z"/>
            <path d="m29.21,33.33h8.5s0,.01,0,.02H13.44s0-.01,0-.02h15.77m-16.37-1.01c-.05,0-.1,0-.15.02-.1.04-.24.16-.24.25-.02.57-.01,1.14-.01,1.76h.42c8.29,0,16.57,0,24.86,0,.13,0,.26,0,.39,0,.09,0,.19,0,.28.01.03,0,.05,0,.08,0,.21,0,.26-.12.25-.35-.02-.41,0-.83,0-1.24q0-.44-.43-.44c-3.03,0-6.05,0-9.08,0-5.38,0-10.77,0-16.15,0-.07,0-.15,0-.22,0h0Z"/>
          </g>
          <g>
            <path class="cls-3" d="m12.94,28.81c.01-.33.01-.65,0-1.03h5.13c6.72,0,13.43,0,20.15,0-.01.36-.01.7,0,1.03-.17,0-.35,0-.52,0h-.9s-16.6,0-16.6,0c-2.42,0-4.83,0-7.25,0Z"/>
            <path d="m37.71,28.28v.02h-.46s-.45,0-.45,0h-3.55s-7.7,0-7.7,0h-2.54s-2.54,0-2.54,0c-2.33,0-4.66,0-7.01,0,0,0,0-.02,0-.03h2.99c7.09,0,14.18,0,21.26,0m.61-1h0c-8.44,0-16.88,0-25.32,0-.04,0-.09,0-.13,0-.02,0-.05,0-.07,0-.02,0-.05,0-.07,0-.2,0-.3.1-.29.35.02.42.03.85,0,1.28-.02.32.09.41.41.41h0c2.54,0,5.08,0,7.62,0,1.69,0,3.39,0,5.08,0,3.75,0,7.5,0,11.25,0,.31,0,.61,0,.92,0,.23,0,.46,0,.69.01.01,0,.02,0,.03,0,.23,0,.29-.09.29-.33-.02-.44-.02-.87,0-1.31.02-.32-.1-.4-.41-.4h0Z"/>
          </g>
          <g>
            <path class="cls-3" d="m12.94,48.97v-.32c0-.23,0-.46,0-.69h25.13s.09,0,.14,0c0,.35,0,.68,0,1.01H12.94Z"/>
            <path d="m22.44,48.45c5.09,0,10.18,0,15.28,0,0,0,0,0,0,.01H13.44s0-.01,0-.02h9m-9.51-1c-.07,0-.15,0-.22.01-.19.02-.29.1-.28.33.02.4,0,.81,0,1.21q0,.47.47.47c8.48,0,16.95,0,25.43,0,.03,0,.07,0,.11,0,.02,0,.04,0,.06-.01.08-.05.2-.12.2-.19.02-.57,0-1.14,0-1.76-.24-.03-.44-.07-.64-.07-5.21,0-10.42,0-15.64,0-3.13,0-6.26,0-9.39,0h0s-.07,0-.11,0h0Z"/>
          </g>
          <path class="cls-12" d="m26.01,17.22c1.41,0,2.83,0,4.24,0,.29,0,.58,0,.87,0,1.41,0,2.83,0,4.24,0,.27,0,.53,0,.8,0h2.55c0,.64,0,1.26-.01,1.88,0,.07-.18.18-.28.18-.57,0-1.14-.04-1.71-.04-7.86,0-15.71,0-23.57-.01-.91,0-.76.1-.77-.76,0-.35.03-.71.07-1.06.01-.08.15-.19.23-.19.35-.02.69,0,1.04,0,2.48,0,4.97,0,7.45,0,.13,0,.27,0,.4,0,.42,0,.85,0,1.27,0,.72,0,1.44,0,2.15,0,.33,0,.67,0,1,0Z"/>
          <g>
            <path class="cls-3" d="m9.28,38.95c-.47,0-.92,0-1.38,0,0-.5,0-1.01,0-1.51v-.57s1.74,0,2.08,0c0,.67,0,1.35,0,2.04v.05s-.7,0-.7,0Z"/>
            <path d="m8.97,37.36c.17,0,.34,0,.52,0,0,.36,0,.72,0,1.09h-.22c-.29,0-.58,0-.86,0,0-.34,0-.68,0-1.02v-.07s.21,0,.21,0h.36m-1.3-1c-.18,0-.27.06-.27.25,0,.86,0,1.72.01,2.59,0,.09.15.24.23.24.54,0,1.07.01,1.62.01.4,0,.81,0,1.22,0,0-1,0-1.96,0-2.92,0-.06-.14-.16-.22-.16-.43,0-.86,0-1.29,0-.25,0-.49,0-.74,0-.19,0-.37,0-.56,0h0Z"/>
          </g>
          <path class="cls-8" d="m7.39,19.24c0-.73,0-1.47-.01-2.2,0-.27,0-.53,0-.83h3.03c.02.2.06.42.07.63.01.69,0,1.39.01,2.08,0,.29-.11.37-.37.37-.88-.01-1.77,0-2.65,0-.03-.01-.05-.03-.08-.04Z"/>
          <g>
            <path class="cls-3" d="m7.9,43.98c.01-.72,0-1.4,0-2.09.34,0,.66,0,.98,0,.37,0,.74,0,1.11,0,0,.25,0,.48,0,.71,0,0,0,1.19,0,1.38-.32,0-2.09,0-2.09,0Z"/>
            <path d="m9.48,42.4c0,.07,0,.14,0,.21v.36s0,.44,0,.44c0,.02,0,.04,0,.06-.16,0-.32,0-.49,0h-.39s-.21,0-.21,0c0-.37,0-.73,0-1.08.16,0,.31,0,.47,0,.2,0,.41,0,.61,0m.67-1.01s-.01,0-.02,0c-.42,0-.84.01-1.26.01-.37,0-.74,0-1.12,0,0,0-.01,0-.02,0-.27,0-.34.11-.34.38.01.77.02,1.54,0,2.31,0,.3.12.4.38.4.15,0,.29,0,.44,0,.26,0,.52,0,.78,0,.42,0,.84,0,1.26,0h0c.17,0,.23-.07.23-.24,0-.42,0-.85,0-1.27h0c0-.41-.01-.83,0-1.24,0-.26-.1-.34-.34-.34h0Z"/>
          </g>
          <path class="cls-8" d="m7.39,21.37c.13-.05.25-.13.38-.13.82-.02,1.63-.02,2.45-.03,0,0,.03,0,.03,0h.03c.07.07.19.15.19.23.02.82.01,1.64,0,2.46,0,.12-.04.23-.06.35-.02.02-.05.04-.07.07-.93-.01-1.86-.03-2.79-.03-.26,0-.23-.14-.23-.3.02-.03.03-.05.05-.08,0-.83,0-1.66,0-2.49,0-.02,0-.05,0-.07Z"/>
          <g>
            <path class="cls-3" d="m9.04,48.99c-.38,0-.76-.01-1.14-.01,0-.7,0-1.37,0-2.03.35,0,2.09,0,2.09,0v.11c0,.66,0,1.31,0,1.95-.31,0-.63,0-.94-.01Z"/>
            <path d="m8.4,47.44c.18,0,.36,0,.54,0h.54c0,.35,0,.7,0,1.05-.14,0-.29,0-.43,0-.22,0-.44,0-.66-.01,0-.34,0-.69,0-1.03m-.68-1.01c-.26,0-.33.11-.33.36.01.78.01,1.56,0,2.35,0,.24.04.33.31.33h0s.06,0,.1,0c.82,0,1.65.03,2.47.03h0c.07,0,.2-.15.2-.23.01-.93,0-1.85,0-2.83-.53,0-1.04,0-1.54,0-.41,0-.81,0-1.21,0,0,0,0,0-.01,0h0Z"/>
          </g>
          <g>
            <path class="cls-3" d="m7.9,28.06c0-.43,0-.85,0-1.28.47,0,.93,0,1.41,0h.68s0,2.03,0,2.03h-2.1s0-.74,0-.74Z"/>
            <path d="m9.35,27.28h.13s0,1.03,0,1.03h-.53c-.19,0-.38,0-.57,0,0-.08,0-.17,0-.25,0-.26,0-.52,0-.78.32,0,.63,0,.96,0m0-1c-.6,0-1.18,0-1.76.01-.07,0-.18.17-.18.26-.02.83,0,1.66-.02,2.48,0,.18.04.27.24.27h0c.44,0,.88,0,1.33,0s.84,0,1.26,0h0c.18,0,.27-.07.27-.26,0-.91,0-1.81,0-2.77-.38,0-.76,0-1.13,0h0Z"/>
          </g>
          <g>
            <path class="cls-3" d="m7.9,33.81v-2c.32,0,1.7,0,2.08,0v1.99h-2.08Z"/>
            <path d="m8.4,32.32c.15,0,.3,0,.45,0,.21,0,.42,0,.63,0v.99h-1.08v-.28c0-.24,0-.48,0-.72m-.77-1.01c-.2,0-.23.1-.23.27,0,.85,0,1.7,0,2.55,0,.06.03.12.04.18h3.04v-2.9c-.16-.03-.29-.08-.42-.08-.81,0-1.61,0-2.42-.01,0,0,0,0,0,0h0Z"/>
          </g>
          <path class="cls-11" d="m22.85,17.21c-.42,0-.85,0-1.27,0,.42,0,.85,0,1.27,0Z"/>
          <path class="cls-11" d="m26.01,17.22c-.33,0-.67,0-1,0,.33,0,.67,0,1,0Z"/>
          <path class="cls-11" d="m31.12,17.22c-.29,0-.58,0-.87,0,.29,0,.58,0,.87,0Z"/>
          <path class="cls-11" d="m36.16,17.22c-.27,0-.53,0-.8,0,.27,0,.53,0,.8,0Z"/>
          <path class="cls-10" d="m7.39,19.24s.05.03.08.04c-.03-.01-.05-.03-.08-.04Z"/>
          <path class="cls-9" d="m7.39,21.37s0,.05,0,.07c0-.02-.01-.03-.02-.05,0,0,.02-.01.02-.02Z"/>
          <path class="cls-9" d="m7.39,23.92s-.03.05-.05.08c.02-.03.03-.05.05-.08Z"/>
          <path class="cls-10" d="m10.35,24.32s.05-.04.07-.07c-.02.02-.05.04-.07.07Z"/>
          <path class="cls-5" d="m10.29,21.22h-.03s-.03,0-.03,0c.02,0,.04,0,.06,0Z"/>
        </g>
      </g>
      <g>
        <g>
          <path class="cls-2" d="m7.34,35.82c-2.34,0-3.96-.43-4.81-1.29-.77-.77-1.23-1.7-1.42-2.83l3.32-.21c.12.57.32,1.03.59,1.38.56.72,1.37,1.08,2.39,1.08.77,0,1.38-.19,1.82-.58.46-.39.7-.89.7-1.43s-.22-.99-.66-1.39c-.41-.37-1.21-.67-2.54-.96-1.89-.43-3.24-.99-4.02-1.66-.74-.65-1.11-1.45-1.11-2.45,0-.66.19-1.27.57-1.86.38-.58.97-1.05,1.75-1.39.81-.35,1.95-.53,3.4-.53,1.75,0,3.1.32,3.99.95.75.53,1.23,1.34,1.46,2.44l-3.28.19c-.16-.56-.42-1-.79-1.3-.45-.37-1.06-.56-1.82-.56-.64,0-1.15.15-1.51.45-.38.32-.58.73-.58,1.2,0,.27.09.66.51,1.01.28.25.82.46,1.74.65,1.92.41,3.31.83,4.12,1.25.77.39,1.33.87,1.66,1.43.34.56.51,1.2.51,1.91,0,.83-.23,1.62-.7,2.32-.47.72-1.11,1.24-1.96,1.62-.86.38-1.98.57-3.32.57Z"/>
          <path class="cls-2" d="m7.31,22.2c1.65,0,2.89.29,3.7.86.51.36.88.88,1.11,1.57l-2.29.13c-.19-.48-.47-.87-.82-1.16-.54-.45-1.26-.68-2.14-.68-.76,0-1.38.19-1.83.57-.5.41-.76.96-.76,1.58,0,.37.12.91.66,1.37.36.33.96.56,1.98.78,1.88.41,3.23.81,4,1.21.68.35,1.17.77,1.46,1.25.3.49.44,1.03.44,1.65,0,.75-.2,1.41-.61,2.05-.41.63-.98,1.1-1.74,1.43-.8.35-1.85.53-3.12.53-2.17,0-3.71-.4-4.46-1.14-.56-.56-.95-1.23-1.16-2.02l2.33-.15c.14.46.33.84.58,1.16.65.83,1.61,1.27,2.78,1.27.89,0,1.61-.23,2.15-.7.72-.62.87-1.33.87-1.81s-.14-1.14-.83-1.76c-.48-.43-1.33-.77-2.76-1.08-1.81-.41-3.09-.93-3.8-1.56-.64-.55-.93-1.21-.93-2.07,0-.56.16-1.08.49-1.58.33-.51.83-.9,1.53-1.21.74-.33,1.82-.49,3.2-.49m0-1c-1.52,0-2.72.19-3.6.57-.87.38-1.53.91-1.97,1.58-.44.67-.65,1.38-.65,2.13,0,1.14.43,2.08,1.28,2.82.84.74,2.26,1.33,4.24,1.78,1.21.27,1.98.55,2.31.85.33.3.5.64.5,1.02,0,.4-.17.75-.52,1.05s-.85.45-1.49.45c-.86,0-1.53-.3-2-.89-.29-.37-.48-.9-.57-1.6l-4.3.27c.13,1.48.67,2.69,1.63,3.65.96.96,2.68,1.44,5.17,1.44,1.42,0,2.59-.2,3.52-.61.93-.41,1.66-1.01,2.17-1.8s.78-1.66.78-2.59c0-.8-.19-1.52-.58-2.16-.39-.65-1.01-1.19-1.87-1.62s-2.27-.87-4.24-1.29c-.8-.17-1.3-.35-1.52-.54-.22-.19-.33-.4-.33-.63,0-.32.13-.59.4-.81.27-.22.66-.33,1.19-.33.64,0,1.14.15,1.5.45s.6.78.71,1.44l4.26-.25c-.19-1.52-.77-2.62-1.75-3.32-.98-.69-2.41-1.04-4.27-1.04h0Z"/>
        </g>
        <g>
          <polygon class="cls-2" points="26.1 35.57 19.86 26.42 19.86 35.57 16.61 35.57 16.61 21.95 20.07 21.95 26.34 31.16 26.34 21.95 29.6 21.95 29.6 35.57 26.1 35.57"/>
          <path class="cls-2" d="m29.1,22.45v12.62h-2.73l-5.18-7.59-1.83-2.68v10.27h-2.25v-12.62h2.69l5.21,7.65,1.83,2.68v-10.34h2.26m1-1h-4.26v8.09l-5.51-8.09h-4.22v14.62h4.25v-8.03l5.48,8.03h4.26v-14.62h0Z"/>
        </g>
        <g>
          <path class="cls-2" d="m39.11,35.82c-2.34,0-3.96-.43-4.81-1.29-.77-.77-1.23-1.7-1.42-2.83l3.32-.21c.12.57.32,1.03.59,1.38.56.72,1.37,1.08,2.39,1.08.76,0,1.38-.19,1.82-.57.46-.4.7-.89.7-1.43s-.22-.99-.66-1.39c-.41-.37-1.21-.67-2.54-.96-1.89-.42-3.24-.99-4.02-1.67-.74-.64-1.11-1.44-1.11-2.45,0-.66.19-1.27.57-1.86.38-.58.97-1.05,1.75-1.39.81-.35,1.95-.53,3.4-.53,1.75,0,3.1.32,3.99.95.75.53,1.23,1.34,1.46,2.44l-3.28.19c-.16-.56-.42-1-.79-1.3-.45-.37-1.06-.56-1.82-.56-.64,0-1.15.15-1.51.45-.38.32-.58.73-.58,1.2,0,.27.09.66.51,1.01.28.25.82.46,1.74.65,1.92.41,3.31.83,4.12,1.25.77.39,1.33.87,1.66,1.43.34.56.51,1.2.51,1.91,0,.83-.23,1.62-.7,2.32-.47.72-1.11,1.24-1.96,1.62-.86.38-1.98.57-3.32.57Z"/>
          <path class="cls-2" d="m39.08,22.2c1.65,0,2.89.29,3.7.86.51.36.88.88,1.11,1.57l-2.29.13c-.19-.48-.47-.87-.82-1.16-.54-.45-1.26-.68-2.14-.68-.76,0-1.38.19-1.83.57-.5.41-.76.96-.76,1.58,0,.37.12.91.66,1.37.36.33.96.56,1.98.78,1.88.41,3.23.81,4,1.21.68.35,1.17.77,1.46,1.25.3.49.44,1.03.44,1.65,0,.75-.2,1.41-.61,2.05-.41.63-.98,1.1-1.74,1.43-.8.35-1.85.53-3.12.53-2.17,0-3.71-.4-4.46-1.14-.56-.56-.95-1.23-1.16-2.02l2.33-.15c.14.46.33.84.58,1.16.65.83,1.61,1.27,2.78,1.27.89,0,1.61-.23,2.15-.7.72-.62.87-1.33.87-1.81s-.14-1.14-.83-1.76c-.48-.43-1.33-.77-2.76-1.08-1.81-.41-3.09-.93-3.8-1.56-.64-.55-.93-1.21-.93-2.07,0-.56.16-1.08.49-1.58.33-.51.83-.9,1.53-1.21.74-.33,1.82-.49,3.2-.49m0-1c-1.52,0-2.72.19-3.6.57-.87.38-1.53.91-1.97,1.58-.44.67-.65,1.38-.65,2.13,0,1.14.43,2.08,1.28,2.82.84.74,2.26,1.33,4.24,1.78,1.21.27,1.98.55,2.31.85.33.3.5.64.5,1.02,0,.4-.17.75-.52,1.05s-.85.45-1.49.45c-.86,0-1.53-.3-2-.89-.29-.37-.48-.9-.57-1.6l-4.3.27c.13,1.48.67,2.69,1.63,3.65.96.96,2.68,1.44,5.17,1.44,1.42,0,2.59-.2,3.52-.61.93-.41,1.66-1.01,2.17-1.8s.78-1.66.78-2.59c0-.8-.19-1.52-.58-2.16-.39-.65-1.01-1.19-1.87-1.62s-2.27-.87-4.24-1.29c-.8-.17-1.3-.35-1.52-.54-.22-.19-.33-.4-.33-.63,0-.32.13-.59.4-.81.27-.22.66-.33,1.19-.33.64,0,1.14.15,1.5.45s.6.78.71,1.44l4.26-.25c-.19-1.52-.77-2.62-1.75-3.32-.98-.69-2.41-1.04-4.27-1.04h0Z"/>
        </g>
      </g>
    </g>
  </g>
</svg>