<?xml version="1.0" encoding="UTF-8"?>
<svg id="Layer_2" data-name="Layer 2" xmlns="http://www.w3.org/2000/svg" viewBox="0 0 36.27 36.23">
  <defs>
    <style>
      .cls-1 {
        fill: none;
      }

      .cls-2 {
        fill: #fdfdff;
      }

      .cls-3 {
        fill: #42526a;
      }

      .cls-4 {
        fill: #fff;
        stroke: #000;
        stroke-miterlimit: 10;
      }
    </style>
  </defs>
  <g id="Layer_5" data-name="Layer 5">
    <g id="bMd6vh.tif">
      <g>
        <path class="cls-2" d="m7.82,13.7s.02,0,.03,0c.05,0,.1,0,.15,0,1.04,0,2.08,0,3.11,0,.21,0,.36.05.51.2,2.33,2.33,4.66,4.66,7,6.99.19.19.21.39.13.6-.1.29-.17.58-.26.87-.11.37-.13.74-.15,1.11-.04.54.08,1.06.21,1.56.12.45.32.9.55,1.31.35.63.84,1.16,1.35,1.67,1.79,1.8,3.59,3.59,5.39,5.39.53.53,1.05,1.05,1.6,1.56.3.28.63.52,1.05.6.07.01.14.03.21.06.23.11.47.15.72.07.13-.04.26-.09.39-.11.44-.06.78-.32,1.07-.6,1.15-1.12,2.28-2.26,3.41-3.41.39-.39.8-.75,1.1-1.22.29-.46.39-.96.34-1.49-.05-.57-.32-1.04-.71-1.44-.73-.76-1.49-1.5-2.24-2.24-1.22-1.22-2.43-2.44-3.65-3.65-.76-.75-1.47-1.56-2.32-2.21-.26-.2-.55-.38-.84-.51-.32-.14-.66-.22-1-.32-.23-.06-.46-.12-.69-.14-.59-.07-1.19-.02-1.78.05-.03,0-.05,0-.08.02-.32.12-.65.25-.97.37-.2.07-.32.02-.45-.13-.09-.11-.18-.21-.27-.31-1.25-1.26-2.5-2.52-3.76-3.78-1-1.01-2.01-2.02-3.02-3.02-.16-.16-.23-.33-.23-.55,0-.09,0-.17,0-.26,0-1.01,0-2.01,0-3.02,0-.59-.25-1.07-.69-1.44-.31-.26-.63-.5-.95-.75-.71-.54-1.42-1.08-2.13-1.63-.53-.41-1.06-.83-1.59-1.24-.64-.49-1.29-.97-1.93-1.47-.34-.27-.69-.51-1.12-.62-.29-.07-.57-.1-.85,0-.38.14-.72.36-1.01.65-.43.43-.87.86-1.3,1.29-.46.46-.96.88-1.33,1.43-.25.38-.39.79-.26,1.23.09.31.26.61.45.87.49.68,1.02,1.34,1.53,2,.73.95,1.47,1.91,2.2,2.86.51.67,1.02,1.33,1.54,1.99.39.5.92.76,1.55.81Zm18.87-1.12s0,0,0,0c-.65,0-1.3.02-1.96,0-.39-.01-.7-.19-.91-.54-.14-.24-.18-.48-.18-.75,0-1.21,0-2.42,0-3.62,0-.33.11-.62.32-.87.07-.08.14-.16.21-.24.83-.83,1.66-1.66,2.48-2.49.53-.54,1.07-1.08,1.59-1.62.22-.22.39-.48.43-.8.05-.47-.37-.95-.85-1-.12-.01-.23-.02-.35-.04-.15-.02-.31-.06-.46-.07-.2-.02-.4-.03-.6-.03-.44,0-.88,0-1.32.03-.32.02-.64.08-.97.13-.18.03-.36.04-.54.09-.32.09-.63.22-.95.31-.56.16-1.09.36-1.59.67-.36.22-.74.41-1.07.67-.56.43-1.09.89-1.57,1.42-.68.76-1.19,1.62-1.6,2.54-.22.5-.35,1.04-.52,1.56-.02.07-.05.14-.07.21-.04.16-.09.32-.11.49-.06.44-.11.87-.16,1.31-.03.27-.04.53.21.74.26.22.49.47.73.71.61.62,1.22,1.25,1.83,1.87.76.76,1.53,1.51,2.29,2.26.23.23.45.45.69.67.06.05.15.09.23.09.22-.02.43-.08.65-.1.38-.04.77-.07,1.16-.08.23,0,.46.05.69.05.36,0,.71.08,1.05.16.46.11.91.27,1.34.48.58.28,1.11.64,1.59,1.07.36.32.69.68,1.04,1.02.16.15.33.29.5.44.08.06.16.1.26.03.15-.1.3-.2.45-.29.67-.38,1.27-.84,1.82-1.36.68-.64,1.3-1.33,1.78-2.14.27-.46.5-.94.73-1.41.12-.25.22-.51.29-.78.11-.39.16-.8.27-1.19.15-.52.13-1.06.18-1.59.02-.2-.02-.41-.02-.61,0-.38,0-.77-.08-1.14-.08-.32-.11-.66-.33-.93-.28-.35-.61-.44-.99-.23-.21.12-.39.27-.57.44-.77.73-1.54,1.47-2.3,2.21-.6.58-1.21,1.17-1.8,1.76-.36.35-.77.56-1.29.54-.56-.02-1.12,0-1.68,0Zm-14.59,4.91c-.28.28-.53.54-.79.79-.71.71-1.43,1.41-2.14,2.12-.79.79-1.57,1.6-2.36,2.39-1.5,1.51-3.02,3.01-4.52,4.52-.44.44-.86.9-1.18,1.45-.4.68-.61,1.42-.61,2.2,0,.29.06.57.11.86.11.66.36,1.27.73,1.82.57.85,1.37,1.41,2.32,1.77.43.16.88.28,1.35.28.42,0,.83-.01,1.24-.12.21-.06.45-.07.65-.17.63-.31,1.22-.69,1.73-1.18,1.16-1.15,2.31-2.3,3.46-3.46,1.42-1.42,2.83-2.85,4.26-4.27.23-.23.33-.44.14-.73,0-.01,0-.03,0-.04-.09-.38-.18-.76-.27-1.14-.03-.14-.05-.29-.06-.43,0-.38-.01-.76,0-1.14.01-.25.07-.5.1-.75.02-.17.04-.34.05-.51,0-.04-.03-.08-.06-.11-.81-.8-1.62-1.6-2.43-2.4-.57-.57-1.14-1.14-1.72-1.74Z"/>
        <path class="cls-4" d="m7.82,13.7c-.63-.05-1.15-.31-1.55-.81-.52-.66-1.03-1.33-1.54-1.99-.73-.95-1.47-1.91-2.2-2.86-.51-.67-1.04-1.32-1.53-2-.19-.26-.35-.56-.45-.87-.13-.44,0-.85.26-1.23.37-.55.88-.96,1.33-1.43.43-.43.87-.86,1.3-1.29.29-.29.63-.51,1.01-.65.28-.1.57-.07.85,0,.43.11.78.35,1.12.62.64.49,1.29.98,1.93,1.47.53.41,1.06.83,1.59,1.24.71.55,1.42,1.08,2.13,1.63.32.25.64.49.95.75.44.37.69.85.69,1.44,0,1.01,0,2.01,0,3.02,0,.09,0,.17,0,.26,0,.22.07.39.23.55,1.01,1,2.01,2.01,3.02,3.02,1.25,1.26,2.51,2.52,3.76,3.78.1.1.19.2.27.31.13.16.25.2.45.13.33-.12.65-.25.97-.37.02,0,.05-.01.08-.02.59-.08,1.18-.12,1.78-.05.23.03.46.08.69.14.34.09.68.18,1,.32.3.13.58.31.84.51.86.65,1.56,1.46,2.32,2.21,1.22,1.21,2.44,2.43,3.65,3.65.75.75,1.5,1.48,2.24,2.24.38.4.66.87.71,1.44.04.53-.05,1.03-.34,1.49-.3.47-.72.83-1.1,1.22-1.13,1.14-2.26,2.28-3.41,3.41-.3.29-.64.54-1.07.6-.13.02-.26.07-.39.11-.25.08-.49.04-.72-.07-.06-.03-.14-.05-.21-.06-.42-.08-.75-.32-1.05-.6-.54-.51-1.07-1.03-1.6-1.56-1.8-1.79-3.59-3.59-5.39-5.39-.51-.51-1-1.04-1.35-1.67-.23-.41-.43-.86-.55-1.31-.14-.51-.25-1.03-.21-1.56.03-.38.04-.74.15-1.11.09-.29.16-.58.26-.87.07-.21.06-.41-.13-.6-2.34-2.32-4.67-4.65-7-6.99-.15-.15-.3-.21-.51-.2-1.04,0-2.08,0-3.11,0-.05,0-.1,0-.15,0,0,0-.02,0-.03,0Z"/>
        <path class="cls-4" d="m26.69,12.59c.56,0,1.12-.02,1.68,0,.52.02.93-.18,1.29-.54.6-.59,1.2-1.18,1.8-1.76.77-.74,1.53-1.48,2.3-2.21.17-.16.36-.32.57-.44.38-.21.71-.12.99.23.22.27.25.61.33.93.09.38.08.76.08,1.14,0,.21.04.41.02.61-.05.53-.03,1.07-.18,1.59-.11.39-.16.8-.27,1.19-.07.27-.17.53-.29.78-.23.48-.46.96-.73,1.41-.48.81-1.11,1.5-1.78,2.14-.55.53-1.16.99-1.82,1.36-.15.09-.3.19-.45.29-.1.07-.19.04-.26-.03-.17-.14-.34-.28-.5-.44-.35-.34-.68-.7-1.04-1.02-.48-.43-1.01-.79-1.59-1.07-.43-.21-.88-.37-1.34-.48-.35-.08-.69-.16-1.05-.16-.23,0-.46-.05-.69-.05-.39.01-.77.04-1.16.08-.22.02-.43.08-.65.1-.07,0-.17-.03-.23-.09-.24-.22-.46-.45-.69-.67-.77-.75-1.53-1.5-2.29-2.26-.62-.62-1.22-1.24-1.83-1.87-.24-.24-.47-.49-.73-.71-.25-.21-.24-.46-.21-.74.05-.44.1-.87.16-1.31.02-.16.07-.33.11-.49.02-.07.05-.14.07-.21.17-.52.3-1.06.52-1.56.41-.92.92-1.78,1.6-2.54.48-.53,1.01-.99,1.57-1.42.33-.25.71-.44,1.07-.67.49-.31,1.03-.51,1.59-.67.32-.09.63-.21.95-.31.17-.05.36-.06.54-.09.32-.05.64-.11.97-.13.44-.03.88-.03,1.32-.03.2,0,.4.01.6.03.16.01.31.05.46.07.12.02.23.03.35.04.48.05.9.53.85,1-.03.31-.21.57-.43.8-.53.54-1.06,1.08-1.59,1.62-.83.83-1.66,1.66-2.48,2.49-.07.07-.14.15-.21.24-.21.25-.32.54-.32.87,0,1.21,0,2.42,0,3.62,0,.27.04.52.18.75.21.35.52.53.91.54.65.02,1.3,0,1.96,0,0,0,0,0,0,0Z"/>
        <path class="cls-4" d="m12.1,17.5c.59.59,1.15,1.17,1.72,1.74.81.8,1.62,1.6,2.43,2.4.03.03.06.08.06.11-.01.17-.03.34-.05.51-.03.25-.09.5-.1.75-.02.38-.01.76,0,1.14,0,.14.03.29.06.43.08.38.18.76.27,1.14,0,.01,0,.03,0,.04.19.29.09.51-.14.73-1.42,1.42-2.84,2.85-4.26,4.27-1.15,1.15-2.3,2.31-3.46,3.46-.5.5-1.1.87-1.73,1.18-.2.1-.43.11-.65.17-.41.11-.82.12-1.24.12-.47,0-.92-.12-1.35-.28-.95-.36-1.75-.92-2.32-1.77-.37-.55-.62-1.16-.73-1.82-.05-.28-.11-.57-.11-.86,0-.79.21-1.52.61-2.2.32-.55.74-1,1.18-1.45,1.5-1.51,3.02-3.01,4.52-4.52.79-.79,1.57-1.6,2.36-2.39.71-.71,1.43-1.42,2.14-2.12.26-.25.51-.51.79-.79Zm-4.49,12.73c.04-.98-.67-1.61-1.55-1.6-.95,0-1.64.58-1.65,1.62,0,.84.8,1.62,1.71,1.57.67-.03,1.55-.66,1.5-1.59Z"/>
        <path class="cls-3" d="m7.82,13.7s.02,0,.03,0c0,0-.02,0-.03,0Z"/>
        <path class="cls-1" d="m7.61,30.23c.05.93-.83,1.56-1.5,1.59-.91.04-1.72-.74-1.71-1.57.01-1.04.7-1.62,1.65-1.62.88,0,1.59.63,1.55,1.6Z"/>
      </g>
    </g>
  </g>
</svg>